<?xml version="1.0" standalone="no"?>
<!DOCTYPE svg PUBLIC "-//W3C//DTD SVG 20010904//EN"
 "http://www.w3.org/TR/2001/REC-SVG-20010904/DTD/svg10.dtd">
<svg version="1.0" xmlns="http://www.w3.org/2000/svg"
 width="640.000000pt" height="640.000000pt" viewBox="0 0 640.000000 640.000000"
 preserveAspectRatio="xMidYMid meet">
<metadata>
Created by potrace 1.11, written by Peter Selinger 2001-2013
</metadata>
<g transform="translate(0.000000,640.000000) scale(0.100000,-0.100000)"
fill="#000000" stroke="none">
<path d="M3316 5682 c-3 -5 1 -9 9 -9 8 0 12 4 9 9 -3 4 -7 8 -9 8 -2 0 -6 -4
-9 -8z"/>
<path d="M3356 5678 c3 -5 10 -6 15 -3 13 9 11 12 -6 12 -8 0 -12 -4 -9 -9z"/>
<path d="M3030 5677 c0 -2 6 -10 14 -16 11 -9 16 -9 22 1 4 7 4 10 -1 6 -4 -4
-14 -3 -22 3 -7 6 -13 9 -13 6z"/>
<path d="M1050 5660 c0 -5 5 -10 11 -10 5 0 7 5 4 10 -3 6 -8 10 -11 10 -2 0
-4 -4 -4 -10z"/>
<path d="M1130 5660 c0 -5 5 -10 11 -10 5 0 7 5 4 10 -3 6 -8 10 -11 10 -2 0
-4 -4 -4 -10z"/>
<path d="M1310 5666 c0 -2 7 -7 16 -10 8 -3 12 -2 9 4 -6 10 -25 14 -25 6z"/>
<path d="M3214 5663 c3 -6 -2 -16 -11 -22 -16 -9 -16 -10 3 -8 21 1 26 19 9
34 -4 4 -5 3 -1 -4z"/>
<path d="M3393 5655 c0 -8 4 -12 9 -9 5 3 6 10 3 15 -9 13 -12 11 -12 -6z"/>
<path d="M905 5640 c10 -11 20 -20 23 -20 3 0 -3 9 -13 20 -10 11 -20 20 -23
20 -3 0 3 -9 13 -20z"/>
<path d="M1013 5635 c0 -8 4 -12 9 -9 5 3 6 10 3 15 -9 13 -12 11 -12 -6z"/>
<path d="M1100 5646 c0 -2 8 -10 18 -17 15 -13 16 -12 3 4 -13 16 -21 21 -21
13z"/>
<path d="M1198 5638 c-9 -5 -6 -7 9 -5 12 2 25 6 28 8 8 9 -23 6 -37 -3z"/>
<path d="M1255 5639 c4 -9 0 -16 -7 -16 -44 -1 -153 -15 -172 -23 -16 -6 -28
-5 -36 3 -10 9 -11 9 -6 0 4 -7 -5 -14 -25 -18 -17 -4 -51 -16 -75 -27 -24
-10 -49 -16 -56 -12 -6 4 -8 3 -4 -4 6 -10 -35 -30 -42 -21 -2 2 -8 -4 -13
-13 -6 -10 -14 -18 -19 -18 -5 0 -26 -11 -46 -25 -20 -14 -41 -22 -47 -18 -6
3 -7 1 -3 -5 6 -11 -31 -38 -47 -34 -4 1 -6 -4 -5 -10 2 -7 -5 -12 -14 -12
-10 1 -15 -2 -12 -7 3 -5 -7 -22 -23 -37 -16 -15 -44 -46 -62 -70 -24 -31 -37
-40 -44 -33 -6 6 -15 11 -21 11 -5 0 -1 -6 9 -14 18 -13 18 -14 -4 -45 -12
-17 -27 -29 -32 -25 -5 3 -6 10 -3 16 4 7 2 8 -4 4 -9 -5 -8 -12 1 -27 9 -14
9 -21 1 -27 -7 -4 -26 -42 -44 -84 -18 -43 -36 -78 -39 -78 -4 0 -7 -12 -8
-27 -1 -25 -8 -64 -13 -70 -2 -2 -3 -13 -4 -24 0 -12 -10 -25 -21 -30 -17 -6
-18 -8 -2 -8 13 -1 16 -7 13 -27 -3 -14 -11 -33 -18 -42 -8 -10 -9 -13 -1 -9
14 9 15 -118 0 -147 -7 -14 -6 -17 4 -11 9 6 11 3 6 -8 -3 -9 -2 -19 3 -22 5
-3 9 -16 9 -28 -2 -24 6 -64 20 -115 8 -27 7 -33 -3 -29 -7 3 -13 -1 -13 -8 0
-7 6 -11 14 -8 7 3 16 -3 19 -13 4 -11 19 -47 34 -81 16 -34 26 -64 22 -67 -3
-3 0 -6 7 -6 8 0 11 -6 7 -17 -4 -10 -4 -14 0 -10 4 4 27 -22 50 -57 24 -36
55 -76 69 -90 16 -16 23 -31 19 -43 -4 -13 -3 -14 4 -5 13 19 99 -65 97 -94
-1 -11 4 -21 11 -21 10 0 11 4 2 14 -6 7 -8 16 -5 19 7 8 38 -21 32 -30 -3 -3
-2 -4 1 -1 4 2 29 -8 56 -23 38 -21 48 -31 44 -47 -5 -18 -4 -19 8 -3 7 10 17
14 22 9 8 -8 32 -19 149 -66 11 -5 24 -9 29 -9 5 -1 11 -7 14 -14 2 -6 -2 -10
-10 -9 -7 2 -10 2 -5 0 4 -3 5 -8 2 -13 -3 -5 2 -15 10 -24 8 -8 11 -17 6 -21
-5 -3 -17 5 -25 17 -9 12 -17 20 -19 17 -1 -2 -9 -13 -17 -23 -8 -11 -10 -17
-5 -15 12 7 46 -26 38 -35 -4 -3 -1 -6 5 -6 18 0 14 14 -9 33 -11 10 -18 21
-15 24 3 4 18 -7 33 -23 20 -21 37 -29 65 -30 21 -1 38 3 38 8 0 6 5 6 14 -1
18 -15 30 11 13 28 -8 8 -7 15 5 28 16 15 17 13 13 -25 -3 -40 6 -55 20 -32 5
8 12 7 23 -2 12 -10 14 -10 8 0 -4 7 -2 12 7 12 7 0 14 -6 14 -13 0 -10 -28
-14 -115 -15 -105 -2 -117 0 -138 19 -21 20 -24 20 -45 6 -22 -16 -22 -16 -1
-14 11 0 18 5 16 9 -8 12 11 9 24 -4 15 -15 16 -32 2 -23 -12 7 -208 10 -215
3 -2 -2 -29 -1 -59 2 -34 4 -52 2 -49 -4 4 -5 -1 -7 -10 -3 -9 3 -19 1 -23 -4
-3 -6 -15 -9 -25 -6 -11 3 -17 1 -13 -4 3 -5 -1 -9 -9 -9 -8 0 -20 -7 -27 -15
-7 -9 -19 -14 -26 -11 -8 3 -13 0 -11 -7 1 -7 -6 -11 -15 -11 -10 1 -15 -2
-12 -7 8 -13 -27 -60 -39 -52 -6 3 -7 1 -3 -5 4 -6 0 -28 -9 -48 -8 -20 -15
-47 -15 -61 0 -15 -4 -22 -11 -17 -8 4 -8 1 -2 -12 15 -30 10 -59 -9 -56 -9 1
-20 -3 -24 -9 -4 -8 -3 -9 4 -5 29 18 38 -9 37 -116 0 -60 -4 -108 -8 -108 -5
0 -5 -6 0 -12 10 -17 10 -308 0 -308 -5 0 -5 -6 -1 -12 11 -17 11 -228 1 -228
-5 0 -5 -5 -1 -11 10 -16 11 -149 2 -149 -5 0 -4 -8 1 -18 7 -13 6 -23 -1 -30
-7 -7 -8 -12 -2 -12 5 0 9 -14 10 -30 1 -17 -4 -30 -10 -30 -6 0 -4 -5 4 -10
11 -7 11 -10 2 -10 -8 0 -10 -5 -5 -12 12 -21 14 -48 2 -48 -6 0 -7 -5 -2 -12
10 -17 10 -188 0 -188 -5 0 -5 -5 -1 -12 12 -19 11 -188 -1 -188 -5 0 -3 -5 5
-10 11 -7 11 -10 2 -10 -8 0 -10 -5 -5 -12 15 -25 12 -42 -10 -57 -12 -9 -26
-15 -30 -13 -5 1 -5 -2 -2 -8 5 -8 13 -6 26 6 10 9 19 13 20 8 0 -5 2 -31 5
-59 2 -27 6 -56 9 -64 3 -7 0 -20 -6 -27 -9 -12 -9 -13 4 -8 12 4 18 -2 23
-20 3 -14 11 -26 16 -26 6 0 7 -8 4 -17 -4 -10 -4 -14 0 -10 11 10 45 -24 37
-37 -3 -6 -3 -8 2 -4 4 4 20 -1 34 -11 47 -32 105 -48 181 -50 41 -2 87 -4
103 -6 15 -2 27 1 27 6 0 6 5 7 10 4 8 -5 7 -12 -2 -23 -12 -16 -11 -16 7 -1
23 19 180 26 190 9 3 -6 12 -10 18 -10 9 0 9 2 0 8 -7 4 39 8 102 7 68 0 118
-4 125 -11 8 -8 6 -11 -4 -11 -8 0 -13 4 -10 9 8 13 -10 10 -25 -4 -11 -10
-13 -10 -7 0 4 6 2 12 -3 12 -6 0 -11 -4 -11 -8 0 -5 -13 -8 -29 -8 -17 0 -28
3 -25 8 3 4 0 8 -5 8 -6 0 -11 -6 -11 -12 0 -10 -3 -9 -9 1 -7 11 -9 11 -14 0
-4 -10 -6 -10 -6 -1 -1 6 -6 12 -12 12 -5 0 -7 -4 -4 -10 3 -5 0 -10 -9 -10
-8 0 -17 6 -19 13 -4 9 -6 9 -6 0 -1 -15 -51 -18 -51 -3 0 6 -7 10 -15 10 -8
0 -15 -6 -15 -12 0 -9 -3 -8 -10 2 -8 13 -11 13 -26 -2 -15 -15 -15 -17 7 -28
22 -10 22 -10 6 3 -10 9 -14 18 -9 21 16 10 43 -30 47 -68 2 -20 -2 -39 -8
-43 -6 -4 -8 0 -4 10 9 24 0 21 -13 -3 -6 -11 -7 -20 -3 -19 22 4 28 -4 28
-40 1 -22 -2 -38 -6 -35 -4 2 -11 0 -14 -6 -4 -6 -1 -9 6 -8 9 2 12 -29 13
-119 1 -68 4 -123 9 -124 4 -1 24 -2 45 -2 20 -1 43 -8 50 -16 11 -14 12 -14
7 0 -5 12 4 15 52 14 32 0 65 -5 72 -9 9 -6 12 -5 8 1 -5 7 13 10 51 8 31 -2
59 -4 61 -4 2 -1 -3 -9 -10 -19 -13 -15 -12 -16 3 -3 10 7 15 17 12 22 -3 5 2
9 11 9 10 0 13 -5 9 -12 -5 -7 -3 -8 6 -3 7 5 35 9 62 10 41 2 48 -1 43 -14
-4 -14 -4 -14 7 -1 11 13 59 15 346 15 259 0 332 -3 332 -12 0 -7 4 -13 10
-13 5 0 7 6 5 13 -4 9 46 12 230 12 181 0 235 -3 235 -12 0 -7 4 -13 10 -13 5
0 7 6 5 13 -4 9 35 12 179 12 120 0 182 -3 179 -10 -3 -5 0 -4 8 2 16 16 33
17 23 1 -5 -7 -3 -8 6 -3 23 14 70 14 70 -1 0 -8 4 -14 10 -14 5 0 7 6 4 13
-4 10 10 13 58 12 44 -2 62 -6 60 -14 -1 -7 2 -10 8 -6 6 3 8 11 5 16 -4 5 1
9 10 9 10 0 13 -5 9 -12 -5 -7 -3 -8 7 -2 8 5 64 9 124 10 61 1 113 2 117 3 4
0 7 99 8 220 0 182 -3 221 -15 231 -8 7 -15 9 -15 4 0 -5 -5 -2 -10 6 -6 10
-10 11 -10 3 0 -7 -6 -13 -14 -13 -8 0 -17 6 -19 13 -4 10 -6 10 -6 0 -1 -7
-9 -13 -18 -13 -15 0 -16 2 -3 10 12 8 10 10 -11 10 -14 0 -29 -3 -33 -8 -10
-10 -106 -11 -100 0 8 13 -10 9 -25 -5 -11 -9 -13 -9 -7 1 4 6 3 12 -3 12 -5
0 -12 -6 -14 -12 -4 -10 -6 -10 -6 0 -1 6 -6 12 -12 12 -5 0 -7 -4 -4 -10 3
-5 2 -10 -3 -10 -6 0 -12 6 -15 13 -4 10 7 13 43 13 27 -1 52 -4 56 -8 10 -11
26 -10 20 0 -3 5 50 8 117 7 72 -1 128 3 136 9 12 9 13 7 8 -8 -7 -17 -6 -17
10 -5 15 12 16 12 10 -4 -4 -10 -7 -21 -7 -23 0 -3 -4 -2 -10 1 -5 3 -10 1
-10 -4 0 -19 17 -12 33 12 14 22 22 24 129 25 62 1 123 4 136 6 12 3 22 0 22
-6 0 -7 6 -3 14 7 8 11 19 16 30 12 9 -4 15 -3 12 2 -6 8 30 25 47 22 5 -1 6
3 2 8 -7 12 29 33 39 23 4 -3 4 2 0 13 -6 15 -4 17 11 11 11 -4 16 -4 13 0 -4
3 2 25 14 48 35 68 43 131 43 348 0 113 3 204 8 201 9 -5 9 11 0 21 -9 9 -11
106 -2 100 4 -2 10 3 13 12 4 11 2 15 -7 11 -8 -3 -14 1 -14 8 0 16 18 15 29
0 4 -5 8 0 8 11 0 14 -6 21 -16 20 -11 0 -18 7 -19 21 -1 12 2 20 7 17 10 -6
11 10 1 20 -4 4 -8 31 -8 60 -1 45 2 53 14 48 14 -5 14 -4 1 13 -21 25 -21 75
-1 67 14 -5 14 -4 1 13 -21 25 -21 75 -1 67 14 -5 14 -4 1 13 -21 25 -21 75
-1 67 14 -5 14 -4 1 13 -21 25 -21 75 -1 67 14 -5 14 -4 1 13 -21 25 -21 75
-1 67 14 -5 14 -3 1 14 -19 24 -20 100 -2 96 8 -1 12 3 9 10 -2 7 -8 12 -13
11 -5 -1 -9 64 -9 143 -1 93 3 144 10 144 5 0 3 5 -5 10 -13 9 -13 11 0 20 8
5 10 10 5 10 -13 0 -14 119 -1 139 6 9 5 12 -1 8 -6 -4 -13 10 -17 34 -9 54
-37 109 -78 150 -18 18 -33 36 -33 40 0 4 -4 11 -9 16 -5 5 -6 3 -2 -4 10 -18
0 -16 -31 4 -34 22 -165 43 -189 30 -14 -8 -16 -7 -10 8 5 14 4 16 -8 6 -7 -6
-38 -11 -68 -10 -30 1 -60 -1 -67 -5 -6 -4 -11 -2 -11 4 0 6 -11 8 -27 5 l-28
-6 25 15 c14 8 20 15 15 16 -6 0 -20 -6 -31 -14 -16 -12 -71 -14 -285 -14
-146 1 -271 -2 -277 -6 -7 -4 -12 -2 -12 4 0 6 -4 8 -10 5 -5 -3 -10 1 -10 9
0 9 8 14 20 13 11 -1 20 -5 20 -10 0 -5 6 -4 13 2 8 6 16 9 19 6 4 -5 6 4 9
43 1 9 7 24 13 32 10 13 9 13 -8 0 -18 -13 -19 -13 -14 0 6 18 -27 26 -38 9
-3 -5 -19 0 -37 12 l-32 21 28 -24 c21 -19 24 -27 15 -36 -7 -7 -8 -12 -4 -12
4 0 16 10 26 23 10 12 22 18 26 14 5 -4 2 -13 -6 -18 -12 -9 -12 -10 3 -5 12
4 17 2 14 -6 -2 -7 -10 -12 -17 -10 -7 2 -23 -6 -35 -18 -12 -11 -25 -17 -28
-13 -11 10 -8 25 3 18 6 -4 7 1 3 11 -4 11 -8 13 -11 6 -2 -7 -9 -9 -15 -5 -7
4 -4 -5 6 -20 10 -15 15 -32 12 -37 -8 -13 -105 -13 -105 0 0 6 -8 10 -17 10
-16 0 -16 -2 -3 -11 11 -8 3 -9 -31 -6 -26 2 -54 0 -64 -6 -15 -8 -17 -7 -11
9 6 15 5 17 -5 7 -7 -7 -31 -13 -52 -13 -31 0 -38 3 -33 16 3 8 2 13 -3 9 -5
-3 -11 0 -13 7 -3 7 -7 5 -11 -6 -4 -11 -3 -15 4 -10 7 4 10 1 7 -7 -3 -8 -12
-13 -21 -13 -9 1 -24 2 -32 3 -8 0 -15 6 -15 12 0 5 4 8 8 5 4 -2 9 5 9 17 2
21 1 22 -13 3 -8 -11 -14 -23 -14 -26 0 -3 -57 -6 -127 -6 -71 0 -120 1 -110
4 9 2 15 7 13 10 -2 4 9 8 26 9 21 0 26 -2 17 -8 -11 -7 -10 -9 4 -9 9 0 17 4
17 8 0 5 16 9 35 10 19 1 35 -3 35 -8 0 -6 5 -10 11 -10 5 0 7 5 3 12 -5 7 -2
9 7 6 11 -4 15 2 16 21 1 22 1 23 -6 6 -6 -14 -9 -5 -9 33 -1 30 3 50 9 47 5
-4 9 -1 9 4 0 6 -4 11 -10 11 -10 0 -10 119 0 125 4 3 6 -12 5 -33 -2 -20 -1
-31 2 -25 3 8 15 11 31 7 l27 -6 -25 14 c-37 20 -34 54 9 99 20 22 41 39 47
39 6 0 28 -15 50 -33 52 -45 136 -102 174 -118 16 -8 30 -17 30 -21 0 -5 9 -8
20 -8 11 0 20 -4 20 -10 0 -5 10 -10 23 -10 13 0 27 -4 33 -10 5 -5 20 -11 33
-13 12 -2 26 -8 29 -13 6 -8 31 -12 95 -14 9 -1 15 -5 12 -9 -2 -5 2 -14 11
-21 12 -10 17 -11 27 -1 9 10 8 11 -5 6 -10 -4 -18 -3 -18 3 0 6 14 10 30 10
17 -1 30 -5 30 -10 0 -5 -5 -6 -11 -3 -6 4 -5 -3 3 -15 11 -18 11 -22 -4 -31
-24 -13 -12 -36 18 -36 15 0 23 4 21 11 -19 45 -19 46 -3 40 9 -3 13 -11 9
-17 -4 -6 -1 -7 7 -2 9 5 10 2 6 -13 -6 -17 -3 -21 14 -19 11 1 20 6 20 12 0
5 5 3 10 -5 6 -9 10 -10 10 -3 0 6 -4 15 -10 18 -5 3 -10 11 -10 17 0 7 4 7
13 -1 8 -6 17 -7 22 -3 4 4 5 -4 1 -18 -3 -14 -3 -19 0 -12 5 10 9 10 20 1 8
-7 17 -9 21 -5 3 3 0 6 -8 6 -11 0 -11 2 1 10 21 13 30 12 26 -2 -1 -7 -1 -10
1 -5 3 4 9 7 14 7 6 0 7 -4 4 -10 -3 -5 -2 -10 4 -10 5 0 13 9 16 20 4 11 11
18 16 14 6 -4 6 -11 -2 -20 -8 -10 -8 -14 0 -14 6 0 11 5 11 11 0 8 4 8 14 0
11 -9 16 -9 22 0 4 8 3 9 -4 5 -12 -7 -17 6 -6 17 12 11 33 -5 28 -21 -5 -14
-4 -14 6 1 6 9 16 15 22 11 6 -4 5 -9 -3 -15 -10 -6 -7 -8 8 -6 12 0 19 5 17
9 -3 4 0 8 5 8 6 0 11 -5 11 -12 0 -6 2 -9 5 -6 3 3 3 13 -1 22 -5 13 -9 14
-20 5 -16 -13 -18 -1 -4 21 9 13 13 11 31 -9 17 -21 22 -22 30 -10 5 7 9 20 9
27 0 6 5 11 11 10 6 -2 13 3 14 10 2 7 1 8 -2 2 -2 -5 -9 -7 -15 -4 -5 3 -12
-3 -15 -15 -10 -39 -38 -17 -38 29 0 15 -5 24 -12 22 -7 -1 -13 3 -13 9 0 7
10 9 26 5 15 -4 23 -3 20 3 -5 8 39 26 57 23 4 -1 7 2 7 8 0 5 7 10 15 10 8 0
31 9 51 21 20 11 43 18 50 15 8 -3 13 -2 11 2 -1 4 2 8 6 9 5 1 15 10 22 20
13 17 14 17 30 -2 16 -20 16 -20 6 1 -9 20 -4 27 45 64 31 23 68 55 84 72 18
18 34 27 41 22 8 -5 9 -3 4 5 -4 8 3 23 18 39 13 15 32 39 42 54 9 15 22 25
28 21 6 -4 7 -1 2 7 -4 7 -3 15 2 19 5 3 19 27 31 54 12 26 26 47 32 47 5 0 7
7 4 15 -4 8 -2 15 3 15 5 0 9 10 10 21 1 12 9 29 17 38 9 10 14 20 11 22 -2 3
2 27 11 54 13 46 18 71 30 160 9 71 2 244 -11 265 -5 8 -4 11 2 7 5 -3 10 0
10 8 0 8 -5 11 -10 8 -6 -4 -8 5 -5 20 3 15 1 24 -3 21 -7 -4 -21 46 -20 68 1
5 -8 24 -19 43 -11 20 -20 45 -20 56 0 11 -4 17 -10 14 -6 -3 -10 1 -10 10 0
9 -16 41 -35 71 -20 30 -32 60 -29 66 4 6 3 8 -3 5 -12 -8 -56 50 -48 63 3 6
-1 7 -9 4 -9 -3 -16 -1 -16 5 0 5 -19 29 -42 52 -24 22 -38 38 -31 35 6 -4 14
-2 18 3 3 6 -3 8 -15 6 -12 -2 -31 6 -48 21 -15 14 -21 22 -13 18 9 -5 12 -3
7 5 -4 6 -12 9 -17 6 -5 -4 -24 5 -41 18 -96 71 -297 152 -400 160 -10 1 -18
4 -18 7 0 3 -26 5 -57 4 -32 0 -64 4 -72 10 -12 9 -13 8 -6 -3 6 -11 3 -13
-13 -9 -11 3 -38 2 -59 -1 -52 -10 -68 -4 -51 17 12 15 11 16 -4 3 -10 -7 -15
-17 -12 -22 5 -8 -10 -11 -63 -12 -13 0 -23 -3 -23 -7 0 -7 -103 -33 -116 -30
-4 1 -10 -2 -13 -7 -3 -4 -42 -26 -86 -48 -44 -22 -81 -43 -83 -47 -2 -5 -10
-8 -18 -8 -8 0 -14 -5 -14 -11 0 -6 -7 -8 -16 -5 -8 3 -13 2 -10 -3 8 -12 -21
-34 -34 -26 -6 4 -9 2 -8 -2 4 -12 -112 -129 -124 -125 -5 1 -7 -2 -3 -7 7
-12 -25 -52 -36 -46 -4 3 -6 -3 -5 -13 1 -12 -6 -17 -21 -16 -13 1 -20 -3 -17
-7 3 -5 10 -7 15 -4 5 4 9 2 9 -3 0 -12 -25 -33 -32 -27 -3 3 -11 -3 -19 -12
-13 -16 -12 -17 4 -4 22 17 23 1 1 -41 -11 -21 -18 -27 -24 -19 -5 9 -9 8 -13
-4 -4 -10 -3 -14 4 -9 13 8 1 -38 -11 -46 -5 -3 -11 -22 -15 -43 -4 -20 -11
-40 -16 -43 -5 -3 -7 -10 -4 -15 4 -5 -1 -9 -9 -9 -10 0 -13 6 -9 18 5 14 4
15 -8 4 -12 -11 -12 -15 1 -25 16 -13 25 -37 14 -37 -4 0 -13 8 -21 18 -12 15
-13 14 -1 -8 14 -28 18 -70 6 -70 -4 0 -5 -7 -2 -15 4 -8 2 -15 -4 -15 -6 0
-8 -9 -5 -20 3 -11 0 -20 -6 -20 -12 0 -10 27 3 50 5 8 6 12 1 8 -11 -11 -35
11 -35 31 1 14 2 14 11 -1 21 -36 31 -14 20 43 -2 12 -35 5 -50 -11 -16 -16
-25 -54 -11 -45 4 3 6 -8 5 -24 -2 -20 2 -28 10 -25 22 9 29 -18 10 -33 -11
-7 -13 -13 -6 -13 7 0 9 -5 4 -12 -13 -22 -12 -37 5 -50 13 -11 14 -11 7 1 -6
10 -4 12 6 6 11 -7 11 -5 -1 10 -14 17 -14 17 7 4 16 -9 19 -16 10 -21 -9 -6
-8 -8 3 -8 13 0 13 -1 0 -11 -12 -8 -12 -12 -2 -16 10 -4 9 -9 -5 -19 -16 -12
-16 -13 -1 -8 12 4 16 0 15 -14 0 -12 -5 -18 -9 -16 -5 3 -6 10 -3 15 3 5 -2
6 -11 2 -16 -6 -15 -8 3 -22 20 -16 23 -27 25 -88 1 -19 5 -30 11 -26 6 4 7 1
2 -6 -5 -10 -13 -8 -29 9 -21 21 -21 21 -1 36 l20 16 -20 -3 c-11 -2 -26 0
-32 4 -18 11 -16 3 6 -36 l19 -34 -33 0 c-25 0 -32 4 -30 16 2 9 4 16 5 16 3
0 9 92 13 183 2 45 -1 72 -8 72 -5 0 -3 5 5 10 8 5 10 10 5 10 -6 0 -11 12
-13 28 -1 15 -3 41 -4 57 -2 17 -6 32 -10 36 -4 3 -9 18 -11 35 -2 16 -9 39
-16 52 -6 12 -10 22 -7 22 3 0 -8 26 -24 58 -20 41 -25 61 -18 70 6 6 7 12 3
12 -4 0 -1 8 6 18 13 15 12 16 -3 3 -10 -7 -15 -17 -12 -22 3 -5 1 -9 -4 -9
-5 0 -15 14 -22 30 -7 17 -16 30 -20 30 -8 0 -23 39 -21 53 1 5 -3 6 -8 2 -12
-7 -33 29 -23 40 4 5 2 5 -5 1 -13 -7 -56 47 -45 58 4 4 0 6 -8 4 -8 -1 -14 3
-12 10 1 6 -1 11 -5 10 -5 -2 -18 4 -31 13 -15 11 -20 22 -16 35 5 16 4 16 -5
4 -7 -10 -14 -11 -18 -4 -5 5 -30 26 -58 45 -27 18 -52 36 -55 39 -3 3 -31 18
-62 33 -44 22 -56 32 -53 47 2 11 0 22 -5 25 -5 3 -7 -4 -5 -15 5 -24 4 -24
-63 -2 -29 10 -49 22 -45 26 4 5 3 6 -3 3 -7 -4 -34 -2 -60 3 -60 13 -125 21
-184 23 -26 1 -50 8 -58 17 -11 13 -11 13 -7 -1z m1065 -781 c0 -6 -7 -8 -15
-4 -8 3 -19 -2 -24 -12 -9 -14 -10 -14 -11 -1 0 8 5 20 11 26 13 13 39 6 39
-9z m-23 -50 c16 -26 12 -38 -8 -25 -11 7 -14 14 -8 16 8 2 7 6 -2 12 -9 6
-10 9 -2 9 6 0 15 -6 20 -12z m31 -94 c0 -25 -12 -32 -23 -14 -4 6 -11 7 -17
4 -7 -5 -8 -2 -2 7 5 8 9 17 10 22 1 4 2 9 3 12 4 15 29 -10 29 -31z m-341
-787 c7 -4 9 -15 6 -25 -3 -9 -3 -14 2 -10 4 4 14 3 22 -3 11 -10 10 -14 -4
-25 -12 -9 -14 -13 -5 -14 7 0 10 -4 7 -10 -3 -5 -1 -10 5 -10 6 0 8 -5 3 -12
-4 -7 -6 -26 -5 -43 2 -23 1 -27 -7 -15 -7 9 -11 10 -11 3 0 -6 5 -15 10 -18
6 -4 10 -33 9 -66 -2 -46 -6 -62 -20 -69 -25 -14 -29 -12 -23 8 5 16 5 16 -6
0 -10 -16 -13 -17 -38 -2 l-27 16 24 -19 c13 -9 42 -18 64 -19 21 -1 34 2 28
6 -7 4 7 7 29 8 25 1 39 -2 35 -8 -3 -6 -1 -10 4 -10 6 0 11 4 11 9 0 4 20 8
44 7 24 0 42 -4 40 -8 -3 -5 2 -8 11 -8 9 0 14 4 11 8 -3 5 1 9 9 9 8 0 12 -4
9 -9 -3 -4 2 -8 10 -8 9 0 16 5 16 10 0 6 5 10 11 10 5 0 7 -4 4 -10 -3 -5 3
-10 14 -10 10 0 21 5 23 12 3 8 6 7 10 -3 5 -13 -8 -16 -85 -16 -51 -1 -98 4
-104 9 -9 7 -13 7 -13 0 0 -6 -30 -9 -75 -8 -41 0 -75 -3 -75 -8 0 -5 -10 -1
-22 10 -12 10 -18 13 -14 7 5 -10 -20 -12 -111 -12 -108 1 -119 3 -133 23 -24
34 -23 55 3 50 20 -4 21 -4 2 5 -11 4 -23 7 -27 4 -11 -6 -4 -41 10 -55 7 -7
12 -15 12 -18 0 -4 -42 -7 -93 -8 -82 -1 -94 2 -105 19 -14 21 0 26 16 6 7 -9
31 -13 64 -11 72 2 75 3 58 14 -9 6 -18 6 -24 0 -15 -15 -30 -12 -18 3 7 8 6
16 -5 26 -13 12 -14 11 -8 -8 6 -19 -8 -31 -18 -13 -2 4 -2 1 -1 -5 4 -16 -32
-11 -49 6 -10 11 -8 12 11 6 14 -4 22 -2 22 5 0 6 -4 8 -10 5 -5 -3 -10 -2
-10 4 0 5 6 11 13 14 6 2 -4 4 -23 3 -27 -2 -35 -6 -34 -20 1 -9 -3 -15 -10
-13 -6 2 -11 8 -12 13 -2 21 -16 41 -29 41 -8 0 -11 -5 -8 -10 4 -6 -1 -8 -11
-4 -23 9 -43 -3 -25 -14 8 -4 15 -13 15 -19 1 -5 2 -18 4 -27 1 -13 3 -14 7
-4 5 11 7 11 15 0 8 -11 9 -10 4 4 -3 9 -2 17 1 17 4 0 15 -8 26 -17 12 -10
17 -12 12 -4 -5 9 -4 12 4 10 31 -11 11 -24 -37 -26 -43 -1 -52 2 -48 13 3 8
-1 17 -10 21 -13 5 -13 8 -2 15 13 10 0 7 -35 -7 -8 -4 -14 1 -14 10 0 8 7 14
16 13 11 -2 15 4 13 21 -2 19 0 22 12 12 8 -7 17 -8 19 -4 10 16 65 14 71 -2
4 -12 11 -13 23 -7 10 5 24 7 32 4 9 -3 11 0 7 7 -9 13 -37 11 -48 -4 -4 -6
-8 -2 -8 8 0 9 8 17 18 18 9 0 28 2 42 5 19 3 21 2 10 -6 -9 -6 -10 -10 -3
-10 7 0 16 6 20 13 13 21 44 29 61 15 11 -9 14 -9 9 -1 -12 19 7 23 39 8 28
-14 28 -14 9 2 -20 17 -18 18 75 62 52 26 101 54 108 64 7 9 20 17 28 17 8 0
14 5 14 10 0 6 6 9 13 8 6 -2 11 4 9 12 -2 8 -1 12 3 8 4 -3 15 2 25 12 19 19
35 21 57 7z m-872 -231 c11 -2 24 -4 28 -5 5 0 5 -5 2 -11 -3 -5 -1 -10 4 -10
6 0 11 5 11 10 0 17 25 11 38 -10 7 -12 8 -20 2 -20 -5 0 -10 -5 -10 -11 0 -8
4 -8 14 0 10 8 16 9 21 1 3 -5 1 -10 -5 -10 -6 0 -8 -6 -4 -12 4 -7 4 -10 -1
-6 -4 4 -14 3 -20 -2 -9 -8 -12 -1 -9 25 3 42 -7 51 -31 25 -15 -17 -16 -22
-4 -37 12 -15 12 -16 -3 -11 -9 4 -19 4 -23 0 -21 -22 -93 -3 -79 20 8 13 24
9 20 -4 -1 -7 -1 -9 2 -5 2 4 11 2 20 -5 15 -12 16 -11 3 5 -8 10 -9 17 -3 17
6 0 16 -8 21 -17 6 -11 11 -13 12 -5 1 6 2 16 3 21 0 5 4 12 8 16 4 4 4 13 1
21 -4 11 -9 12 -19 3 -11 -9 -14 -9 -14 0 0 7 -5 9 -11 5 -16 -10 10 -24 30
-16 14 5 14 3 2 -11 -9 -12 -18 -14 -31 -7 -9 5 -20 7 -23 3 -4 -3 -13 0 -21
6 -22 18 1 54 29 46 11 -4 29 -8 40 -9z m2430 4 c4 -6 11 -8 16 -5 15 10 10
-22 -6 -35 -11 -9 -18 -9 -35 3 -11 7 -17 17 -13 20 3 4 1 7 -6 7 -8 0 -10 -7
-6 -20 5 -15 3 -18 -9 -14 -9 3 -16 2 -16 -4 0 -11 18 -11 36 1 7 4 17 1 23
-7 14 -17 -8 -29 -30 -16 -8 5 -19 5 -26 -1 -7 -6 -18 -7 -25 -3 -22 14 -40
13 -34 -1 3 -9 0 -12 -9 -9 -7 3 -13 14 -12 24 1 22 36 23 53 1 9 -11 11 -9 9
10 -1 13 -7 24 -12 24 -20 0 -27 15 -7 16 29 1 78 10 83 15 7 7 20 4 26 -6z
m-2315 -20 c5 8 9 7 13 -5 5 -10 3 -14 -5 -9 -7 4 -8 3 -4 -4 4 -6 14 -8 24
-5 13 5 14 3 5 -7 -8 -9 -9 -19 -1 -36 13 -27 25 -31 25 -9 0 8 -4 12 -9 9 -4
-3 -8 0 -8 6 0 8 7 9 18 5 16 -7 35 -11 72 -15 11 -1 11 -3 2 -7 -6 -2 -9 -9
-6 -15 4 -6 1 -8 -7 -6 -8 3 -13 11 -11 17 1 7 -2 10 -8 6 -6 -3 -8 -10 -5
-15 3 -5 -11 -8 -32 -7 -23 1 -38 7 -38 15 0 7 -4 16 -10 20 -5 4 -11 14 -13
22 -2 8 -10 19 -18 23 -8 5 -11 13 -7 20 5 8 8 7 11 -2 3 -10 6 -10 12 -1z
m61 0 c13 8 19 7 19 0 0 -6 4 -9 9 -6 5 3 11 0 14 -8 3 -8 -1 -13 -11 -12 -9
0 -16 -4 -15 -10 1 -7 -8 -11 -22 -10 -17 1 -21 4 -13 13 7 9 6 15 -6 19 -9 3
-13 11 -9 17 5 8 8 7 11 -1 2 -8 9 -9 23 -2z m1966 -3 c6 -4 14 -3 18 2 3 6
13 7 22 4 13 -5 12 -8 -7 -15 -13 -5 -20 -11 -17 -14 3 -3 14 -1 26 5 13 7 22
8 26 1 3 -5 1 -10 -5 -10 -6 0 -8 -6 -4 -12 5 -10 4 -10 -6 -1 -9 9 -17 9 -26
2 -15 -12 -73 20 -67 38 4 12 21 12 40 0z m95 -2 c13 14 52 13 65 -1 14 -13
12 -14 -12 -8 -24 6 -27 4 -22 -9 8 -22 -33 -53 -45 -34 -11 17 -10 27 3 27 5
0 8 -4 5 -9 -7 -11 20 -8 31 3 4 4 4 7 -2 6 -21 -5 -29 1 -15 10 12 8 10 10
-9 8 -14 -2 -26 3 -29 12 -4 12 -3 13 10 3 8 -7 17 -10 20 -8z m-1919 -30 c-1
-5 4 -17 10 -25 10 -13 10 -13 -4 -2 -9 7 -23 11 -30 9 -8 -2 -10 -2 -6 1 4 2
1 9 -8 16 -14 10 -13 12 12 11 15 0 27 -4 26 -10z m57 -5 c0 -5 -4 -10 -10
-10 -5 0 -10 5 -10 10 0 6 5 10 10 10 6 0 10 -4 10 -10z m1590 -9 c-10 -20
-53 -25 -47 -6 2 5 11 9 20 7 8 -1 18 2 22 8 11 18 16 10 5 -9z m134 -16 c-4
-8 -11 -12 -16 -9 -6 4 -5 10 3 15 19 12 19 11 13 -6z m76 1 c0 -2 -7 -7 -16
-10 -8 -3 -12 -2 -9 4 6 10 25 14 25 6z m-1862 -2373 c2 -7 -1 -13 -8 -13 -6
0 -8 5 -5 10 9 14 -8 12 -24 -2 -11 -10 -13 -10 -7 0 4 6 2 12 -3 12 -6 0 -11
-6 -12 -12 0 -10 -2 -10 -6 0 -2 6 -9 12 -14 12 -6 0 -7 -4 -4 -10 3 -5 2 -10
-3 -10 -6 0 -12 6 -15 13 -4 10 8 13 46 13 31 -1 52 -6 55 -13z m122 1 c8 -8
6 -11 -4 -11 -8 0 -13 4 -10 9 8 13 -10 10 -25 -4 -11 -10 -13 -10 -7 0 4 6 2
12 -3 12 -6 0 -11 -6 -12 -12 0 -10 -2 -10 -6 0 -2 6 -9 12 -14 12 -6 0 -7 -4
-4 -10 3 -5 2 -10 -3 -10 -6 0 -12 6 -15 13 -6 17 86 18 103 1z m118 -1 c2 -7
-1 -13 -8 -13 -6 0 -8 5 -5 10 9 14 -8 12 -24 -2 -11 -10 -13 -10 -7 0 4 6 2
12 -3 12 -6 0 -11 -6 -12 -12 0 -10 -2 -10 -6 0 -2 6 -9 12 -14 12 -6 0 -7 -4
-4 -10 3 -5 2 -10 -3 -10 -6 0 -12 6 -15 13 -4 10 8 13 46 13 31 -1 52 -6 55
-13z m122 1 c8 -8 6 -11 -4 -11 -8 0 -13 4 -10 9 8 13 -10 10 -25 -4 -11 -10
-13 -10 -7 0 4 6 2 12 -3 12 -6 0 -11 -6 -12 -12 0 -10 -2 -10 -6 0 -2 6 -9
12 -14 12 -6 0 -7 -4 -4 -10 3 -5 2 -10 -3 -10 -6 0 -12 6 -15 13 -6 17 86 18
103 1z m118 -1 c2 -7 -1 -13 -8 -13 -6 0 -8 5 -5 10 9 14 -8 12 -24 -2 -11
-10 -13 -10 -7 0 4 6 2 12 -3 12 -6 0 -11 -6 -12 -12 0 -10 -2 -10 -6 0 -2 6
-9 12 -14 12 -6 0 -7 -4 -4 -10 3 -5 2 -10 -3 -10 -6 0 -12 6 -15 13 -4 10 8
13 46 13 31 -1 52 -6 55 -13z m122 1 c8 -8 6 -11 -4 -11 -8 0 -13 4 -10 9 8
13 -10 10 -25 -4 -11 -10 -13 -10 -7 0 4 6 2 12 -3 12 -6 0 -11 -6 -12 -12 0
-10 -2 -10 -6 0 -2 6 -9 12 -14 12 -6 0 -7 -4 -4 -10 3 -5 2 -10 -3 -10 -6 0
-12 6 -15 13 -6 17 86 18 103 1z m118 -1 c2 -7 -1 -13 -8 -13 -6 0 -8 5 -5 10
9 14 -8 12 -24 -2 -11 -10 -13 -10 -7 0 4 6 2 12 -3 12 -6 0 -11 -6 -12 -12 0
-10 -2 -10 -6 0 -2 6 -9 12 -14 12 -6 0 -7 -4 -4 -10 3 -5 2 -10 -3 -10 -6 0
-12 6 -15 13 -4 10 8 13 46 13 31 -1 52 -6 55 -13z m122 1 c8 -8 6 -11 -4 -11
-8 0 -13 4 -10 9 8 13 -10 10 -25 -4 -11 -10 -13 -10 -7 0 4 6 2 12 -3 12 -6
0 -11 -6 -12 -12 0 -10 -2 -10 -6 0 -2 6 -9 12 -14 12 -6 0 -7 -4 -4 -10 3 -5
2 -10 -3 -10 -6 0 -12 6 -15 13 -6 17 86 18 103 1z m118 -1 c2 -7 -1 -13 -8
-13 -6 0 -8 5 -5 10 9 14 -8 12 -24 -2 -11 -10 -13 -10 -7 0 4 6 2 12 -3 12
-6 0 -11 -6 -12 -12 0 -10 -2 -10 -6 0 -2 6 -9 12 -14 12 -6 0 -7 -4 -4 -10 3
-5 2 -10 -3 -10 -6 0 -12 6 -15 13 -4 10 8 13 46 13 31 -1 52 -6 55 -13z m122
1 c8 -8 6 -11 -4 -11 -8 0 -13 4 -10 9 8 13 -10 10 -25 -4 -11 -10 -13 -10 -7
0 4 6 2 12 -3 12 -6 0 -11 -6 -12 -12 0 -10 -2 -10 -6 0 -2 6 -9 12 -14 12 -6
0 -7 -4 -4 -10 3 -5 2 -10 -3 -10 -6 0 -12 6 -15 13 -6 17 86 18 103 1z m118
-1 c2 -7 -1 -13 -8 -13 -6 0 -8 5 -5 10 9 14 -8 12 -24 -2 -11 -10 -13 -10 -7
0 4 6 2 12 -3 12 -6 0 -11 -6 -12 -12 0 -10 -2 -10 -6 0 -2 6 -9 12 -14 12 -6
0 -7 -4 -4 -10 3 -5 2 -10 -3 -10 -6 0 -12 6 -15 13 -4 10 8 13 46 13 31 -1
52 -6 55 -13z m122 1 c8 -8 6 -11 -4 -11 -8 0 -13 4 -10 9 8 13 -10 10 -25 -4
-11 -10 -13 -10 -7 0 4 6 2 12 -3 12 -6 0 -11 -6 -12 -12 0 -10 -2 -10 -6 0
-2 6 -9 12 -14 12 -6 0 -7 -4 -4 -10 3 -5 2 -10 -3 -10 -6 0 -12 6 -15 13 -6
17 86 18 103 1z m118 -1 c2 -7 -1 -13 -8 -13 -6 0 -8 5 -5 10 9 14 -8 12 -24
-2 -11 -10 -13 -10 -7 0 4 6 2 12 -3 12 -6 0 -11 -6 -12 -12 0 -10 -2 -10 -6
0 -2 6 -9 12 -14 12 -6 0 -7 -4 -4 -10 3 -5 2 -10 -3 -10 -6 0 -12 6 -15 13
-4 10 8 13 46 13 31 -1 52 -6 55 -13z m122 1 c8 -8 6 -11 -4 -11 -8 0 -13 4
-10 9 8 13 -10 10 -25 -4 -11 -10 -13 -10 -7 0 4 6 2 12 -3 12 -6 0 -11 -6
-12 -12 0 -10 -2 -10 -6 0 -2 6 -9 12 -14 12 -6 0 -7 -4 -4 -10 3 -5 2 -10 -3
-10 -6 0 -12 6 -15 13 -6 17 86 18 103 1z m118 -1 c2 -7 -1 -13 -8 -13 -6 0
-8 5 -5 10 9 14 -8 12 -24 -2 -11 -10 -13 -10 -7 0 4 6 2 12 -3 12 -6 0 -11
-6 -12 -12 0 -10 -2 -10 -6 0 -2 6 -9 12 -14 12 -6 0 -7 -4 -4 -10 3 -5 2 -10
-3 -10 -6 0 -12 6 -15 13 -4 10 8 13 46 13 31 -1 52 -6 55 -13z m122 1 c8 -8
6 -11 -4 -11 -8 0 -13 4 -10 9 8 13 -10 10 -25 -4 -11 -10 -13 -10 -7 0 4 6 2
12 -3 12 -6 0 -11 -6 -12 -12 0 -10 -2 -10 -6 0 -2 6 -9 12 -14 12 -6 0 -7 -4
-4 -10 3 -5 2 -10 -3 -10 -6 0 -12 6 -15 13 -6 17 86 18 103 1z m-2190 -14 c0
-5 -5 -10 -11 -10 -5 0 -7 5 -4 10 3 6 8 10 11 10 2 0 4 -4 4 -10z"/>
<path d="M2304 4726 c1 -8 5 -18 8 -22 4 -3 5 1 4 10 -1 8 -5 18 -8 22 -4 3
-5 -1 -4 -10z"/>
<path d="M1919 3889 c-19 -22 -40 -37 -47 -34 -8 3 -10 0 -6 -7 5 -8 2 -9 -10
-5 -9 4 -15 3 -12 -2 7 -10 61 -9 72 2 11 11 26 9 19 -3 -3 -5 -1 -10 4 -10
14 0 14 17 0 26 -6 3 -16 1 -22 -5 -19 -19 -31 -12 -12 9 14 15 22 17 36 9 11
-5 25 -7 31 -3 8 5 9 2 5 -10 -4 -10 -3 -15 3 -11 10 6 14 -7 11 -35 -2 -13 0
-13 8 -1 6 10 6 22 -1 34 -7 15 -7 22 3 28 11 7 11 9 2 10 -7 1 -17 3 -23 4
-5 1 -15 3 -22 4 -13 1 -1 16 13 16 16 0 14 18 -2 20 -9 2 -32 -15 -50 -36z
m41 -9 c8 -5 11 -10 5 -10 -5 0 -17 5 -25 10 -8 5 -10 10 -5 10 6 0 17 -5 25
-10z"/>
<path d="M1953 3815 c-3 -9 -3 -19 1 -22 3 -4 6 1 6 11 0 9 5 14 10 11 6 -3
10 -1 10 4 0 17 -20 13 -27 -4z"/>
<path d="M1830 3809 c0 -5 -5 -7 -12 -3 -7 4 -8 3 -4 -5 4 -6 12 -9 17 -5 5 3
17 0 26 -8 15 -12 15 -11 2 10 -15 23 -29 29 -29 11z"/>
<path d="M1870 3811 c0 -6 4 -13 10 -16 6 -3 7 1 4 9 -7 18 -14 21 -14 7z"/>
<path d="M1910 3810 c0 -5 5 -10 10 -10 6 0 10 5 10 10 0 6 -4 10 -10 10 -5 0
-10 -4 -10 -10z"/>
<path d="M1791 3793 c7 -12 15 -20 18 -17 3 2 -3 12 -13 22 -17 16 -18 16 -5
-5z"/>
<path d="M1971 3793 c-1 -18 13 -23 29 -11 12 8 12 9 -2 5 -9 -3 -19 -1 -22 6
-3 9 -5 9 -5 0z"/>
<path d="M1735 3779 c-4 -6 -5 -12 -2 -15 2 -3 7 2 10 11 7 17 1 20 -8 4z"/>
<path d="M1774 3783 c3 -7 -1 -13 -11 -15 -15 -3 -15 -5 3 -10 22 -6 28 12 9
29 -4 4 -5 3 -1 -4z"/>
<path d="M1874 3769 c-3 -6 2 -18 12 -27 17 -16 17 -16 5 0 -7 9 -10 22 -6 28
3 5 4 10 1 10 -3 0 -8 -5 -12 -11z"/>
<path d="M1705 3760 c-3 -5 -1 -10 4 -10 6 0 11 5 11 10 0 6 -2 10 -4 10 -3 0
-8 -4 -11 -10z"/>
<path d="M1919 3768 c-7 -23 -4 -35 7 -35 11 0 11 3 1 16 -10 12 -9 14 6 8 11
-4 16 -3 12 3 -5 9 -24 14 -26 8z"/>
<path d="M1980 3751 c0 -7 -5 -9 -12 -5 -7 5 -8 3 -3 -5 5 -9 10 -10 18 -2 6
6 8 14 4 18 -4 3 -7 1 -7 -6z"/>
<path d="M1670 3740 c0 -5 5 -10 10 -10 6 0 10 5 10 10 0 6 -4 10 -10 10 -5 0
-10 -4 -10 -10z"/>
<path d="M1805 3720 c10 -11 20 -20 23 -20 3 0 -3 9 -13 20 -10 11 -20 20 -23
20 -3 0 3 -9 13 -20z"/>
<path d="M1862 3724 c10 -10 20 -16 22 -13 3 3 -5 11 -17 18 -21 13 -21 12 -5
-5z"/>
<path d="M1700 3721 c0 -5 7 -12 16 -15 14 -5 15 -4 4 9 -14 17 -20 19 -20 6z"/>
<path d="M1946 3722 c-3 -4 4 -9 15 -9 23 -2 25 3 4 10 -8 4 -16 3 -19 -1z"/>
<path d="M1993 3710 c-1 -11 2 -20 7 -20 4 0 7 7 6 15 -3 23 -12 26 -13 5z"/>
<path d="M1571 3713 c-17 -7 -54 -43 -43 -43 4 1 21 12 37 25 30 25 31 28 6
18z"/>
<path d="M1620 3706 c0 -2 7 -6 15 -10 8 -3 15 -1 15 4 0 6 -7 10 -15 10 -8 0
-15 -2 -15 -4z"/>
<path d="M1740 3705 c0 -2 6 -8 13 -14 10 -8 14 -7 14 2 0 8 -6 14 -14 14 -7
0 -13 -1 -13 -2z"/>
<path d="M1794 3693 c16 -20 36 -23 36 -6 0 4 -3 3 -7 0 -3 -4 -16 1 -27 10
-21 18 -21 18 -2 -4z"/>
<path d="M1590 3690 c0 -5 5 -10 10 -10 6 0 10 5 10 10 0 6 -4 10 -10 10 -5 0
-10 -4 -10 -10z"/>
<path d="M1895 3689 c-4 -6 -5 -12 -2 -15 2 -3 7 2 10 11 7 17 1 20 -8 4z"/>
<path d="M1957 3685 c3 -8 9 -12 14 -9 12 7 11 11 -5 17 -10 4 -13 1 -9 -8z"/>
<path d="M1570 3680 c0 -27 21 -42 39 -27 12 10 14 9 8 -6 -4 -11 -3 -16 3
-12 6 3 10 1 10 -6 0 -7 3 -10 6 -7 3 4 0 16 -6 28 -9 16 -15 19 -23 11 -8 -8
-14 -5 -24 11 -8 16 -12 18 -13 8z"/>
<path d="M1627 3679 c7 -7 15 -10 18 -7 3 3 -2 9 -12 12 -14 6 -15 5 -6 -5z"/>
<path d="M1687 3679 c7 -7 15 -10 18 -7 3 3 -2 9 -12 12 -14 6 -15 5 -6 -5z"/>
<path d="M1545 3659 c-4 -6 -5 -12 -2 -15 2 -3 7 2 10 11 7 17 1 20 -8 4z"/>
<path d="M1750 3663 c0 -5 5 -15 10 -23 7 -12 9 -10 7 8 -1 19 -17 33 -17 15z"/>
<path d="M1789 3658 c7 -9 9 -23 5 -30 -6 -10 -4 -11 7 0 11 10 10 15 -6 30
-17 15 -18 15 -6 0z"/>
<path d="M1916 3658 c5 -8 1 -9 -12 -4 -14 5 -16 4 -7 -5 6 -6 16 -8 22 -5 14
9 14 26 0 26 -5 0 -7 -5 -3 -12z"/>
<path d="M1977 3663 c-4 -3 -7 -11 -7 -17 0 -6 5 -5 12 2 6 6 9 14 7 17 -3 3
-9 2 -12 -2z"/>
<path d="M1844 3635 c-9 -14 -14 -29 -10 -32 11 -11 36 -12 36 -1 0 6 -7 8
-15 4 -19 -7 -19 4 1 32 8 12 13 22 10 22 -3 0 -13 -11 -22 -25z"/>
<path d="M1937 3646 c-4 -10 -3 -15 3 -11 6 3 10 1 10 -6 0 -7 3 -10 6 -6 3 3
2 13 -4 22 -8 16 -9 16 -15 1z"/>
<path d="M1736 3623 c-6 -14 -5 -15 5 -6 7 7 10 15 7 18 -3 3 -9 -2 -12 -12z"/>
<path d="M1990 3629 c0 -5 5 -7 10 -4 6 3 10 8 10 11 0 2 -4 4 -10 4 -5 0 -10
-5 -10 -11z"/>
<path d="M1694 3618 c-4 -7 -4 -10 1 -6 4 4 14 0 21 -10 7 -9 14 -15 17 -12 2
3 -4 13 -13 23 -14 15 -20 16 -26 5z"/>
<path d="M1774 3608 c3 -15 26 -23 26 -8 0 6 -4 9 -9 6 -5 -4 -12 -1 -14 4 -3
6 -4 5 -3 -2z"/>
<path d="M1890 3600 c0 -5 5 -10 10 -10 6 0 10 5 10 10 0 6 -4 10 -10 10 -5 0
-10 -4 -10 -10z"/>
<path d="M1060 3685 c-7 -9 -8 -15 -2 -15 5 0 12 7 16 15 3 8 4 15 2 15 -2 0
-9 -7 -16 -15z"/>
<path d="M3526 3685 c4 -8 11 -15 16 -15 6 0 5 6 -2 15 -7 8 -14 15 -16 15 -2
0 -1 -7 2 -15z"/>
<path d="M1295 3600 c3 -5 8 -10 11 -10 2 0 4 5 4 10 0 6 -5 10 -11 10 -5 0
-7 -4 -4 -10z"/>
<path d="M1290 3659 c0 -5 5 -7 10 -4 6 3 10 8 10 11 0 2 -4 4 -10 4 -5 0 -10
-5 -10 -11z"/>
<path d="M3234 3668 c-4 -7 -4 -10 1 -6 4 4 14 0 22 -10 13 -15 13 -15 3 6
-12 25 -16 27 -26 10z"/>
<path d="M1477 5635 c-6 -15 10 -32 20 -21 4 3 1 6 -5 6 -6 0 -9 7 -6 15 4 8
4 15 1 15 -3 0 -7 -7 -10 -15z"/>
<path d="M3119 5633 c-13 -16 -12 -17 4 -4 9 7 17 15 17 17 0 8 -8 3 -21 -13z"/>
<path d="M3455 5639 c-3 -4 2 -6 10 -5 21 3 28 13 10 13 -9 0 -18 -4 -20 -8z"/>
<path d="M3516 5638 c3 -5 10 -6 15 -3 13 9 11 12 -6 12 -8 0 -12 -4 -9 -9z"/>
<path d="M1073 5625 c0 -8 4 -12 9 -9 5 3 6 10 3 15 -9 13 -12 11 -12 -6z"/>
<path d="M1510 5626 c0 -2 7 -7 16 -10 8 -3 12 -2 9 4 -6 10 -25 14 -25 6z"/>
<path d="M1613 5610 c-1 -11 2 -22 6 -24 4 -3 7 4 6 14 -2 27 -10 33 -12 10z"/>
<path d="M2939 5628 c-6 -20 -6 -39 0 -42 4 -3 7 6 7 20 0 20 -4 32 -7 22z"/>
<path d="M2973 5615 c0 -8 4 -12 9 -9 5 3 6 10 3 15 -9 13 -12 11 -12 -6z"/>
<path d="M2996 5602 c-3 -5 1 -9 9 -9 8 0 12 4 9 9 -3 4 -7 8 -9 8 -2 0 -6 -4
-9 -8z"/>
<path d="M3594 5602 c4 -3 14 -7 22 -8 9 -1 13 0 10 4 -4 3 -14 7 -22 8 -9 1
-13 0 -10 -4z"/>
<path d="M816 5587 c3 -10 9 -15 12 -12 3 3 0 11 -7 18 -10 9 -11 8 -5 -6z"/>
<path d="M910 5582 c0 -5 7 -9 15 -9 8 0 12 4 9 9 -3 4 -9 8 -15 8 -5 0 -9 -4
-9 -8z"/>
<path d="M3635 5580 c-3 -5 -1 -10 4 -10 6 0 11 5 11 10 0 6 -2 10 -4 10 -3 0
-8 -4 -11 -10z"/>
<path d="M3670 5582 c0 -5 8 -16 18 -25 15 -14 19 -14 19 -3 0 8 -5 14 -11 13
-6 -1 -10 4 -8 11 1 6 -2 12 -8 12 -5 0 -10 -4 -10 -8z"/>
<path d="M3739 5588 c-5 -16 -4 -46 2 -42 4 2 7 13 6 24 -1 17 -5 26 -8 18z"/>
<path d="M2893 5565 c0 -8 4 -12 9 -9 5 3 6 10 3 15 -9 13 -12 11 -12 -6z"/>
<path d="M784 5518 c-12 -14 -13 -18 -3 -10 9 6 18 10 21 7 2 -3 5 2 5 10 0
19 0 19 -23 -7z"/>
<path d="M696 5498 c3 -5 10 -6 15 -3 13 9 11 12 -6 12 -8 0 -12 -4 -9 -9z"/>
<path d="M1850 5500 c0 -5 5 -10 11 -10 5 0 7 5 4 10 -3 6 -8 10 -11 10 -2 0
-4 -4 -4 -10z"/>
<path d="M3790 5506 c0 -2 7 -7 16 -10 8 -3 12 -2 9 4 -6 10 -25 14 -25 6z"/>
<path d="M3841 5496 c-8 -10 -9 -16 -1 -21 6 -4 9 -1 8 7 -2 7 3 12 10 10 8
-1 11 2 7 8 -8 13 -10 13 -24 -4z"/>
<path d="M737 5493 c-10 -9 -9 -23 1 -23 5 0 9 7 9 15 0 17 -1 18 -10 8z"/>
<path d="M1871 5467 c-13 -21 -12 -21 5 -5 10 10 16 20 13 22 -3 3 -11 -5 -18
-17z"/>
<path d="M3933 5463 c4 -3 1 -13 -6 -22 -11 -14 -10 -14 5 -2 16 12 16 31 1
31 -4 0 -3 -3 0 -7z"/>
<path d="M1884 5442 c4 -3 14 -7 22 -8 9 -1 13 0 10 4 -4 3 -14 7 -22 8 -9 1
-13 0 -10 -4z"/>
<path d="M2620 5420 c-9 -6 -10 -10 -3 -10 6 0 15 5 18 10 8 12 4 12 -15 0z"/>
<path d="M3946 5422 c-3 -5 1 -9 9 -9 8 0 12 4 9 9 -3 4 -7 8 -9 8 -2 0 -6 -4
-9 -8z"/>
<path d="M1956 5387 c3 -10 9 -15 12 -12 3 3 0 11 -7 18 -10 9 -11 8 -5 -6z"/>
<path d="M595 5369 c-4 -6 -5 -12 -2 -15 2 -3 7 2 10 11 7 17 1 20 -8 4z"/>
<path d="M556 5342 c-3 -5 1 -9 9 -9 8 0 12 4 9 9 -3 4 -7 8 -9 8 -2 0 -6 -4
-9 -8z"/>
<path d="M2535 5340 c-3 -5 -1 -10 4 -10 6 0 11 5 11 10 0 6 -2 10 -4 10 -3 0
-8 -4 -11 -10z"/>
<path d="M4053 5328 c1 -15 6 -23 11 -18 4 4 4 16 -2 26 -9 16 -10 14 -9 -8z"/>
<path d="M515 5329 c-4 -6 -5 -12 -2 -15 2 -3 7 2 10 11 7 17 1 20 -8 4z"/>
<path d="M524 5295 c-12 -8 -24 -12 -28 -10 -3 3 -4 2 -1 -2 3 -4 13 -8 21 -9
9 -1 13 0 10 3 -3 3 2 12 12 19 23 18 11 18 -14 -1z"/>
<path d="M2516 5287 c3 -10 9 -15 12 -12 3 3 0 11 -7 18 -10 9 -11 8 -5 -6z"/>
<path d="M2453 5255 c0 -8 4 -12 9 -9 5 3 6 10 3 15 -9 13 -12 11 -12 -6z"/>
<path d="M4156 5207 c3 -10 9 -15 12 -12 3 3 0 11 -7 18 -10 9 -11 8 -5 -6z"/>
<path d="M2275 5160 c3 -5 8 -10 11 -10 2 0 4 5 4 10 0 6 -5 10 -11 10 -5 0
-7 -4 -4 -10z"/>
<path d="M4157 5155 c-4 -8 -3 -16 1 -19 4 -3 9 4 9 15 2 23 -3 25 -10 4z"/>
<path d="M400 5140 c-9 -6 -10 -10 -3 -10 6 0 15 5 18 10 8 12 4 12 -15 0z"/>
<path d="M2200 5140 c-9 -6 -10 -10 -3 -10 6 0 15 5 18 10 8 12 4 12 -15 0z"/>
<path d="M2375 5140 c-3 -5 -1 -10 4 -10 6 0 11 5 11 10 0 6 -2 10 -4 10 -3 0
-8 -4 -11 -10z"/>
<path d="M2190 5106 c0 -2 7 -7 16 -10 8 -3 12 -2 9 4 -6 10 -25 14 -25 6z"/>
<path d="M2250 5100 c0 -5 5 -10 11 -10 5 0 7 5 4 10 -3 6 -8 10 -11 10 -2 0
-4 -4 -4 -10z"/>
<path d="M2173 5087 c0 -7 9 -14 20 -14 11 -1 18 -1 16 0 -2 2 -11 8 -20 15
-12 9 -16 9 -16 -1z"/>
<path d="M2375 5090 c-4 -6 -12 -7 -18 -4 -7 4 -8 3 -4 -1 13 -15 34 -14 34 1
0 17 -4 18 -12 4z"/>
<path d="M339 5068 c-5 -18 -6 -38 -1 -34 7 8 12 36 6 36 -2 0 -4 -1 -5 -2z"/>
<path d="M2349 5057 c6 -8 7 -18 3 -22 -4 -5 -1 -5 6 -1 10 6 10 11 1 22 -6 8
-14 14 -16 14 -3 0 0 -6 6 -13z"/>
<path d="M2215 5049 c-4 -6 -5 -12 -2 -15 2 -3 7 2 10 11 7 17 1 20 -8 4z"/>
<path d="M4212 5031 c7 -9 13 -18 15 -20 1 -2 1 5 0 16 0 11 -7 20 -14 20 -10
0 -10 -4 -1 -16z"/>
<path d="M2319 5038 c-5 -18 -6 -38 -1 -34 7 8 12 36 6 36 -2 0 -4 -1 -5 -2z"/>
<path d="M2230 5021 c0 -6 5 -13 12 -17 6 -4 8 -3 4 4 -3 5 0 13 6 15 8 3 6 6
-4 6 -10 1 -18 -3 -18 -8z"/>
<path d="M2273 5013 c0 -9 4 -10 14 -2 7 6 13 12 13 14 0 1 -6 2 -13 2 -8 0
-14 -6 -14 -14z"/>
<path d="M2355 5020 c-16 -7 -17 -9 -3 -9 9 -1 20 4 23 9 7 11 7 11 -20 0z"/>
<path d="M337 5013 c-10 -9 -9 -23 1 -23 5 0 9 7 9 15 0 17 -1 18 -10 8z"/>
<path d="M2221 4985 c-1 -21 14 -34 29 -25 13 8 13 10 -2 10 -9 0 -19 6 -21
13 -3 6 -6 8 -6 2z"/>
<path d="M2270 4980 c0 -5 5 -10 10 -10 6 0 10 5 10 10 0 6 -4 10 -10 10 -5 0
-10 -4 -10 -10z"/>
<path d="M2320 4964 c0 -16 -2 -17 -10 -4 -5 8 -10 11 -10 5 0 -5 4 -16 9 -24
7 -11 10 -9 16 8 4 13 4 25 1 28 -3 4 -6 -2 -6 -13z"/>
<path d="M2260 4935 c7 -8 19 -15 27 -15 8 0 11 -4 8 -10 -3 -5 -1 -10 4 -10
19 0 12 22 -9 27 -11 3 -20 9 -20 14 0 5 -5 9 -11 9 -8 0 -8 -5 1 -15z"/>
<path d="M4264 4918 l-19 -23 23 19 c12 11 22 21 22 23 0 8 -8 2 -26 -19z"/>
<path d="M2234 4917 c-4 -6 -4 -9 1 -5 4 4 14 3 22 -4 7 -6 15 -9 18 -7 2 3
-4 10 -15 17 -15 9 -21 9 -26 -1z"/>
<path d="M2247 4885 c3 -8 9 -12 14 -9 12 7 11 11 -5 17 -10 4 -13 1 -9 -8z"/>
<path d="M260 4840 c-9 -6 -10 -10 -3 -10 6 0 15 5 18 10 8 12 4 12 -15 0z"/>
<path d="M2270 4760 c0 -5 5 -10 11 -10 5 0 7 5 4 10 -3 6 -8 10 -11 10 -2 0
-4 -4 -4 -10z"/>
<path d="M4286 4762 c-3 -5 1 -9 9 -9 8 0 12 4 9 9 -3 4 -7 8 -9 8 -2 0 -6 -4
-9 -8z"/>
<path d="M250 4740 c0 -5 5 -10 11 -10 5 0 7 5 4 10 -3 6 -8 10 -11 10 -2 0
-4 -4 -4 -10z"/>
<path d="M256 4698 c3 -5 10 -6 15 -3 13 9 11 12 -6 12 -8 0 -12 -4 -9 -9z"/>
<path d="M4286 4678 c3 -5 10 -6 15 -3 13 9 11 12 -6 12 -8 0 -12 -4 -9 -9z"/>
<path d="M256 4662 c-3 -5 1 -9 9 -9 8 0 12 4 9 9 -3 4 -7 8 -9 8 -2 0 -6 -4
-9 -8z"/>
<path d="M2273 4652 c0 -9 4 -23 10 -29 6 -9 6 -13 -1 -13 -6 0 -9 -9 -7 -20
2 -11 0 -20 -5 -20 -4 0 -7 -11 -6 -24 0 -13 3 -22 5 -20 2 2 11 -2 19 -9 13
-10 14 -9 7 2 -6 11 -4 13 7 8 20 -7 18 16 -4 40 -13 14 -14 22 -5 38 11 20
18 59 9 50 -3 -3 -10 0 -17 5 -8 7 -12 4 -12 -8z m21 -18 c3 -8 2 -12 -4 -9
-6 3 -10 10 -10 16 0 14 7 11 14 -7z m-4 -74 c0 -5 -5 -10 -11 -10 -5 0 -7 5
-4 10 3 6 8 10 11 10 2 0 4 -4 4 -10z"/>
<path d="M4299 4658 c-5 -18 -6 -38 -1 -34 7 8 12 36 6 36 -2 0 -4 -1 -5 -2z"/>
<path d="M4281 4576 c-9 -11 -9 -16 1 -22 7 -4 10 -4 6 1 -4 4 -3 14 3 22 6 7
9 13 6 13 -2 0 -10 -6 -16 -14z"/>
<path d="M256 4533 c-6 -14 -5 -15 5 -6 7 7 10 15 7 18 -3 3 -9 -2 -12 -12z"/>
<path d="M4273 4505 c0 -8 4 -12 9 -9 5 3 6 10 3 15 -9 13 -12 11 -12 -6z"/>
<path d="M296 4487 c3 -10 9 -15 12 -12 3 3 0 11 -7 18 -10 9 -11 8 -5 -6z"/>
<path d="M2264 4492 c3 -6 2 -13 -4 -17 -14 -9 -2 -25 18 -24 10 0 12 3 5 5
-7 3 -10 11 -7 19 3 7 0 16 -7 21 -7 4 -10 3 -5 -4z"/>
<path d="M2310 4480 c0 -5 5 -10 10 -10 6 0 10 5 10 10 0 6 -4 10 -10 10 -5 0
-10 -4 -10 -10z"/>
<path d="M4295 4420 c3 -5 8 -10 11 -10 2 0 4 5 4 10 0 6 -5 10 -11 10 -5 0
-7 -4 -4 -10z"/>
<path d="M310 4402 c0 -5 7 -9 15 -9 8 0 12 4 9 9 -3 4 -9 8 -15 8 -5 0 -9 -4
-9 -8z"/>
<path d="M4270 4339 c0 -5 5 -7 10 -4 6 3 10 8 10 11 0 2 -4 4 -10 4 -5 0 -10
-5 -10 -11z"/>
<path d="M336 4327 c3 -10 9 -15 12 -12 3 3 0 11 -7 18 -10 9 -11 8 -5 -6z"/>
<path d="M356 4303 c-6 -14 -5 -15 5 -6 7 7 10 15 7 18 -3 3 -9 -2 -12 -12z"/>
<path d="M4229 4277 c6 -8 7 -18 3 -22 -4 -5 -1 -5 6 -1 10 6 10 11 1 22 -6 8
-14 14 -16 14 -3 0 0 -6 6 -13z"/>
<path d="M335 4260 c3 -5 8 -10 11 -10 2 0 4 5 4 10 0 6 -5 10 -11 10 -5 0 -7
-4 -4 -10z"/>
<path d="M395 4211 c-3 -5 -2 -12 3 -15 5 -3 9 1 9 9 0 17 -3 19 -12 6z"/>
<path d="M4166 4158 c3 -5 10 -6 15 -3 13 9 11 12 -6 12 -8 0 -12 -4 -9 -9z"/>
<path d="M393 4145 c0 -8 4 -12 9 -9 5 3 6 10 3 15 -9 13 -12 11 -12 -6z"/>
<path d="M425 4140 c-3 -6 1 -7 9 -4 18 7 21 14 7 14 -6 0 -13 -4 -16 -10z"/>
<path d="M4153 4135 c0 -8 4 -12 9 -9 5 3 6 10 3 15 -9 13 -12 11 -12 -6z"/>
<path d="M434 4118 c-4 -7 -4 -10 1 -6 4 4 15 2 24 -5 14 -11 14 -10 2 6 -16
20 -18 21 -27 5z"/>
<path d="M493 4047 c0 -8 6 -14 14 -14 9 0 10 4 2 14 -6 7 -12 13 -14 13 -1 0
-2 -6 -2 -13z"/>
<path d="M4056 4021 c-3 -5 1 -14 8 -20 10 -9 16 -9 21 -1 4 6 1 9 -7 8 -7 -2
-12 3 -10 10 2 14 -4 16 -12 3z"/>
<path d="M534 4006 c1 -8 5 -18 8 -22 4 -3 5 1 4 10 -1 8 -5 18 -8 22 -4 3 -5
-1 -4 -10z"/>
<path d="M510 3963 c0 -6 8 -17 18 -24 16 -13 16 -13 2 6 -8 11 -16 22 -17 24
-2 2 -3 0 -3 -6z"/>
<path d="M3986 3938 c3 -5 10 -6 15 -3 13 9 11 12 -6 12 -8 0 -12 -4 -9 -9z"/>
<path d="M2591 3923 c-16 -29 7 -71 24 -43 3 5 12 7 20 4 8 -4 12 -11 9 -16
-4 -6 3 -5 15 1 25 14 28 23 4 14 -15 -6 -16 -4 -6 8 10 12 8 18 -10 29 -31
20 -46 21 -56 3z m23 -34 c-9 -15 -24 10 -17 29 5 12 7 12 15 -2 5 -9 6 -21 2
-27z m36 10 c0 -5 -5 -9 -11 -9 -5 0 -7 5 -4 10 3 6 1 10 -4 10 -6 0 -11 5
-11 11 0 8 5 8 15 -1 8 -7 15 -16 15 -21z"/>
<path d="M4069 3923 c-13 -16 -12 -17 4 -4 9 7 17 15 17 17 0 8 -8 3 -21 -13z"/>
<path d="M630 3902 c0 -5 7 -9 15 -9 8 0 12 4 9 9 -3 4 -9 8 -15 8 -5 0 -9 -4
-9 -8z"/>
<path d="M3922 3880 c-9 -15 -9 -21 1 -26 6 -4 9 -4 5 1 -4 4 -3 14 4 22 6 7
9 15 7 18 -3 2 -10 -4 -17 -15z"/>
<path d="M2563 3883 c-7 -2 -13 -9 -13 -14 0 -6 4 -8 9 -5 5 3 12 -1 15 -10 4
-12 2 -15 -9 -10 -8 3 -15 1 -15 -4 0 -13 27 -13 35 0 4 6 2 17 -4 24 -6 7 -8
16 -4 19 7 8 4 8 -14 0z"/>
<path d="M2676 3858 c-9 -12 -16 -18 -16 -13 0 5 -5 4 -12 -3 -9 -9 -9 -15 1
-24 10 -11 11 -9 5 6 -5 14 -4 17 4 12 7 -4 15 -1 18 8 4 9 14 13 32 10 15 -3
24 -4 22 -2 -3 2 -12 9 -22 16 -14 11 -19 9 -32 -10z"/>
<path d="M3953 3865 c0 -8 4 -12 9 -9 5 3 6 10 3 15 -9 13 -12 11 -12 -6z"/>
<path d="M2610 3855 c-11 -13 -10 -14 4 -9 9 3 16 10 16 15 0 13 -6 11 -20 -6z"/>
<path d="M3874 3840 c0 -13 4 -16 10 -10 7 7 7 13 0 20 -6 6 -10 3 -10 -10z"/>
<path d="M656 3822 c-2 -4 -1 -14 4 -22 7 -11 9 -9 7 8 -1 24 -3 26 -11 14z"/>
<path d="M717 3808 c19 -21 31 -25 14 -5 -6 8 -9 16 -6 19 3 2 -2 5 -10 5 -13
0 -13 -3 2 -19z"/>
<path d="M740 3826 c0 -2 7 -9 15 -16 9 -7 15 -8 15 -2 0 5 -7 12 -15 16 -8 3
-15 4 -15 2z"/>
<path d="M2590 3820 c0 -5 5 -10 10 -10 6 0 10 5 10 10 0 6 -4 10 -10 10 -5 0
-10 -4 -10 -10z"/>
<path d="M2695 3823 c3 -3 0 -11 -5 -18 -7 -8 -5 -12 4 -12 14 0 16 22 3 32
-4 3 -5 2 -2 -2z"/>
<path d="M2739 3828 c0 -2 -2 -13 -3 -26 -3 -21 -2 -21 18 -5 12 10 23 20 26
22 3 2 -6 0 -19 -4 -16 -5 -21 -4 -17 4 4 6 5 11 2 11 -3 0 -6 -1 -7 -2z"/>
<path d="M2627 3799 c7 -7 15 -10 18 -7 3 3 -2 9 -12 12 -14 6 -15 5 -6 -5z"/>
<path d="M2596 3791 c-3 -5 1 -11 9 -14 9 -4 12 -1 8 9 -6 16 -10 17 -17 5z"/>
<path d="M3833 3785 c0 -8 4 -12 9 -9 5 3 6 10 3 15 -9 13 -12 11 -12 -6z"/>
<path d="M696 3778 c3 -5 10 -6 15 -3 13 9 11 12 -6 12 -8 0 -12 -4 -9 -9z"/>
<path d="M2531 3771 c-8 -14 -7 -22 4 -31 9 -7 18 -10 22 -6 3 3 1 6 -5 6 -6
0 -9 11 -6 25 5 30 -1 32 -15 6z"/>
<path d="M2760 3775 c-7 -8 -17 -12 -24 -8 -6 3 -7 2 -3 -2 4 -5 15 -10 23
-11 9 -1 13 0 10 3 -3 4 -1 12 5 20 6 7 9 13 6 13 -2 0 -10 -7 -17 -15z"/>
<path d="M2837 3779 c7 -7 15 -10 18 -7 3 3 -2 9 -12 12 -14 6 -15 5 -6 -5z"/>
<path d="M3750 3786 c0 -2 7 -7 16 -10 8 -3 12 -2 9 4 -6 10 -25 14 -25 6z"/>
<path d="M835 3771 c-3 -5 -2 -12 3 -15 5 -3 9 1 9 9 0 17 -3 19 -12 6z"/>
<path d="M861 3754 c0 -11 3 -14 6 -6 3 7 2 16 -1 19 -3 4 -6 -2 -5 -13z"/>
<path d="M2810 3762 c0 -4 10 -9 22 -9 18 -2 20 0 8 7 -18 12 -30 13 -30 2z"/>
<path d="M3712 3761 c-11 -7 -11 -9 0 -14 9 -3 15 1 15 9 0 8 -1 14 -1 14 -1
0 -7 -4 -14 -9z"/>
<path d="M3806 3762 c-3 -5 1 -9 9 -9 8 0 12 4 9 9 -3 4 -7 8 -9 8 -2 0 -6 -4
-9 -8z"/>
<path d="M894 3736 c-3 -9 -4 -21 -1 -28 3 -7 6 -3 6 9 1 22 1 22 36 6 19 -9
35 -20 35 -24 0 -4 7 -10 15 -13 13 -5 12 -1 -2 18 -10 13 -20 22 -22 20 -2
-2 -17 4 -32 12 -26 13 -30 13 -35 0z"/>
<path d="M2588 3727 c2 -10 5 -16 6 -15 1 2 7 10 13 18 10 13 8 16 -6 16 -13
0 -17 -6 -13 -19z"/>
<path d="M2868 3743 c6 -3 9 -10 5 -16 -4 -8 -1 -7 9 1 13 10 17 10 22 -4 9
-22 8 -26 -6 -18 -7 5 -8 3 -3 -5 5 -8 11 -9 17 -3 15 15 -7 47 -34 49 -13 0
-17 -1 -10 -4z"/>
<path d="M3670 3740 c0 -5 5 -10 10 -10 6 0 10 5 10 10 0 6 -4 10 -10 10 -5 0
-10 -4 -10 -10z"/>
<path d="M3794 3733 c16 -20 36 -23 36 -6 0 4 -3 3 -7 0 -3 -4 -16 1 -27 10
-21 18 -21 18 -2 -4z"/>
<path d="M2933 3720 c4 -26 28 -35 33 -12 1 7 0 8 -3 2 -2 -5 -9 -10 -14 -10
-6 0 -8 4 -5 8 2 4 0 14 -5 22 -7 11 -8 8 -6 -10z"/>
<path d="M786 3718 c3 -5 10 -6 15 -3 13 9 11 12 -6 12 -8 0 -12 -4 -9 -9z"/>
<path d="M3623 3722 c-9 -6 -7 -11 7 -20 12 -7 20 -8 20 -2 0 5 -6 10 -12 11
-7 0 -4 4 7 9 13 6 15 9 5 9 -8 0 -20 -3 -27 -7z"/>
<path d="M3700 3719 c0 -5 5 -7 10 -4 6 3 10 8 10 11 0 2 -4 4 -10 4 -5 0 -10
-5 -10 -11z"/>
<path d="M3751 3727 c2 -1 13 -9 24 -17 19 -14 19 -14 6 3 -7 9 -18 17 -24 17
-6 0 -8 -1 -6 -3z"/>
<path d="M3854 3716 c1 -8 5 -18 8 -22 4 -3 5 1 4 10 -1 8 -5 18 -8 22 -4 3
-5 -1 -4 -10z"/>
<path d="M2836 3693 c3 -16 10 -32 15 -38 7 -7 7 -1 0 16 -5 15 -7 29 -5 32 3
3 1 8 -5 11 -6 4 -8 -4 -5 -21z"/>
<path d="M3676 3707 c3 -10 9 -15 12 -12 3 3 0 11 -7 18 -10 9 -11 8 -5 -6z"/>
<path d="M794 3688 l-19 -23 23 19 c21 18 27 26 19 26 -2 0 -12 -10 -23 -22z"/>
<path d="M910 3701 c0 -6 7 -8 15 -4 10 3 15 0 13 -8 -2 -8 7 -14 22 -16 24
-2 24 -2 2 5 -13 4 -23 12 -22 17 1 6 -6 11 -14 13 -9 2 -16 -1 -16 -7z"/>
<path d="M2548 3703 c7 -3 16 -2 19 1 4 3 -2 6 -13 5 -11 0 -14 -3 -6 -6z"/>
<path d="M855 3689 c-4 -6 -5 -12 -2 -15 2 -3 7 2 10 11 7 17 1 20 -8 4z"/>
<path d="M2521 3688 c-1 -9 11 -26 25 -37 29 -23 44 -27 44 -10 0 5 -4 8 -9 5
-10 -7 -45 22 -54 44 -4 12 -6 12 -6 -2z"/>
<path d="M2570 3690 c-9 -6 -10 -10 -3 -10 6 0 15 5 18 10 8 12 4 12 -15 0z"/>
<path d="M2614 3686 c1 -8 5 -18 8 -22 4 -3 5 1 4 10 -1 8 -5 18 -8 22 -4 3
-5 -1 -4 -10z"/>
<path d="M3593 3673 c-1 -19 1 -22 8 -12 11 17 12 39 2 39 -5 0 -9 -12 -10
-27z"/>
<path d="M3660 3694 c0 -13 18 -39 24 -34 2 3 -2 14 -10 24 -8 11 -14 16 -14
10z"/>
<path d="M2927 3679 c7 -7 15 -10 18 -7 3 3 -2 9 -12 12 -14 6 -15 5 -6 -5z"/>
<path d="M2980 3680 c8 -5 20 -10 25 -10 6 0 3 5 -5 10 -8 5 -19 10 -25 10 -5
0 -3 -5 5 -10z"/>
<path d="M636 3667 c3 -10 9 -15 12 -12 3 3 0 11 -7 18 -10 9 -11 8 -5 -6z"/>
<path d="M866 3663 c-6 -14 -5 -15 5 -6 7 7 10 15 7 18 -3 3 -9 -2 -12 -12z"/>
<path d="M2590 3671 c0 -6 4 -13 10 -16 6 -3 7 1 4 9 -7 18 -14 21 -14 7z"/>
<path d="M2710 3676 c0 -2 8 -10 18 -17 15 -13 16 -12 3 4 -13 16 -21 21 -21
13z"/>
<path d="M3116 3671 c-4 -6 -5 -15 -1 -20 3 -5 1 -12 -4 -16 -5 -3 -9 -14 -8
-24 1 -16 5 -17 19 -10 13 7 18 6 18 -3 0 -10 2 -10 9 1 7 11 9 11 13 0 3 -8
9 -10 14 -6 5 4 3 11 -3 15 -8 5 -8 12 1 24 7 10 17 14 21 10 5 -4 5 -2 2 5
-7 12 -44 6 -53 -8 -3 -5 -10 -9 -16 -9 -7 0 -7 4 0 13 6 7 7 18 3 26 -6 9
-11 10 -15 2z m44 -46 c-7 -9 -15 -13 -17 -11 -7 7 7 26 19 26 6 0 6 -6 -2
-15z m-35 -5 c3 -5 1 -10 -4 -10 -6 0 -11 5 -11 10 0 6 2 10 4 10 3 0 8 -4 11
-10z"/>
<path d="M837 3649 c12 -12 24 -21 27 -18 2 2 -8 13 -22 23 l-27 19 22 -24z"/>
<path d="M910 3660 c0 -5 5 -10 10 -10 6 0 10 5 10 10 0 6 -4 10 -10 10 -5 0
-10 -4 -10 -10z"/>
<path d="M2955 3659 c-11 -16 -1 -19 13 -3 7 8 8 14 3 14 -5 0 -13 -5 -16 -11z"/>
<path d="M944 3645 c-10 -8 -14 -15 -9 -16 6 0 -1 -4 -14 -8 -25 -7 -42 -31
-21 -31 6 0 9 4 5 9 -3 5 5 11 17 13 13 2 22 7 20 11 -2 5 5 15 15 23 10 7 15
14 12 14 -3 0 -14 -7 -25 -15z"/>
<path d="M2765 3643 c-15 -12 -16 -14 -3 -10 9 3 19 1 21 -6 3 -7 4 -2 4 11
-1 12 -1 22 -2 22 0 0 -9 -8 -20 -17z"/>
<path d="M2901 3633 c-10 -24 -9 -26 2 -11 8 10 17 15 21 11 4 -4 4 0 0 10 -8
22 -9 22 -23 -10z"/>
<path d="M3773 3647 c0 -7 9 -14 20 -14 11 -1 18 -1 16 0 -2 2 -11 8 -20 15
-12 9 -16 9 -16 -1z"/>
<path d="M795 3640 c-3 -5 -1 -10 4 -10 6 0 11 5 11 10 0 6 -2 10 -4 10 -3 0
-8 -4 -11 -10z"/>
<path d="M880 3646 c0 -2 7 -7 16 -10 8 -3 12 -2 9 4 -6 10 -25 14 -25 6z"/>
<path d="M2677 3631 c-10 -14 -10 -14 4 -4 9 7 18 10 21 7 3 -3 8 -1 12 4 9
16 -24 9 -37 -7z"/>
<path d="M2870 3640 c0 -5 5 -10 11 -10 5 0 7 5 4 10 -3 6 -8 10 -11 10 -2 0
-4 -4 -4 -10z"/>
<path d="M3650 3646 c0 -2 7 -7 16 -10 8 -3 12 -2 9 4 -6 10 -25 14 -25 6z"/>
<path d="M3690 3640 c0 -5 5 -10 10 -10 6 0 10 5 10 10 0 6 -4 10 -10 10 -5 0
-10 -4 -10 -10z"/>
<path d="M3867 3639 c7 -7 15 -10 18 -7 3 3 -2 9 -12 12 -14 6 -15 5 -6 -5z"/>
<path d="M753 3608 c14 -22 23 -23 30 -4 4 11 1 13 -10 9 -10 -4 -14 -2 -10 4
3 5 0 10 -7 10 -11 0 -12 -4 -3 -19z"/>
<path d="M875 3619 c-4 -6 -5 -12 -2 -15 2 -3 7 2 10 11 7 17 1 20 -8 4z"/>
<path d="M2543 3614 c1 -21 27 -23 27 -2 0 5 -4 7 -9 4 -5 -4 -11 0 -14 6 -3
7 -4 3 -4 -8z"/>
<path d="M2937 3623 c-4 -3 -7 -13 -7 -22 1 -13 3 -13 11 2 11 19 8 33 -4 20z"/>
<path d="M3643 3622 c10 -4 18 -12 18 -17 -1 -15 22 -12 25 3 1 7 0 8 -3 2 -7
-14 -24 -13 -20 2 1 6 -7 13 -18 15 -18 3 -18 2 -2 -5z"/>
<path d="M3930 3620 c0 -5 5 -10 11 -10 5 0 7 5 4 10 -3 6 -8 10 -11 10 -2 0
-4 -4 -4 -10z"/>
<path d="M715 3610 c3 -5 8 -10 11 -10 2 0 4 5 4 10 0 6 -5 10 -11 10 -5 0 -7
-4 -4 -10z"/>
<path d="M3771 3604 c0 -11 3 -14 6 -6 3 7 2 16 -1 19 -3 4 -6 -2 -5 -13z"/>
<path d="M820 3600 c0 -5 5 -10 10 -10 6 0 10 5 10 10 0 6 -4 10 -10 10 -5 0
-10 -4 -10 -10z"/>
<path d="M2720 3600 c-23 -7 -23 -8 -3 -9 12 -1 25 4 28 9 3 6 5 10 3 9 -2 -1
-14 -5 -28 -9z"/>
<path d="M2956 3602 c-3 -5 1 -9 9 -9 8 0 15 4 15 9 0 4 -4 8 -9 8 -6 0 -12
-4 -15 -8z"/>
<path d="M3717 3603 c-3 -5 6 -9 20 -10 19 -1 22 1 12 8 -17 11 -26 11 -32 2z"/>
<path d="M536 3587 c3 -10 9 -15 12 -12 3 3 0 11 -7 18 -10 9 -11 8 -5 -6z"/>
<path d="M2458 3593 c7 -3 16 -2 19 1 4 3 -2 6 -13 5 -11 0 -14 -3 -6 -6z"/>
<path d="M470 3560 c0 -5 5 -10 11 -10 5 0 7 5 4 10 -3 6 -8 10 -11 10 -2 0
-4 -4 -4 -10z"/>
<path d="M4046 3558 c3 -5 10 -6 15 -3 13 9 11 12 -6 12 -8 0 -12 -4 -9 -9z"/>
<path d="M5916 3542 c-3 -4 4 -9 15 -9 23 -2 25 3 4 10 -8 4 -16 3 -19 -1z"/>
<path d="M5776 3518 c3 -5 10 -6 15 -3 13 9 11 12 -6 12 -8 0 -12 -4 -9 -9z"/>
<path d="M5846 3522 c-3 -5 1 -9 9 -9 8 0 12 4 9 9 -3 4 -7 8 -9 8 -2 0 -6 -4
-9 -8z"/>
<path d="M4115 3491 c-3 -5 -2 -12 3 -15 5 -3 9 1 9 9 0 17 -3 19 -12 6z"/>
<path d="M5740 3490 l-55 -5 0 -110 c1 -116 -9 -141 -42 -113 -10 7 -14 8 -10
1 4 -6 4 -13 0 -16 -5 -2 -3 -3 3 -1 6 1 17 -3 23 -9 8 -8 11 -8 11 2 0 7 4
10 9 7 10 -7 9 -25 -2 -43 -5 -8 -3 -13 4 -13 7 0 10 -2 7 -5 -13 -13 -38 8
-33 26 6 19 -1 19 -197 17 l-203 -3 -1 -60 c0 -46 -4 -59 -15 -57 -11 2 -11 0
1 -10 19 -17 25 -42 8 -35 -7 2 -21 -6 -30 -18 -15 -19 -15 -25 -4 -34 10 -9
15 -8 19 3 4 11 1 13 -11 9 -15 -6 -15 -5 -3 10 23 29 41 21 31 -12 -6 -21 -5
-31 3 -35 7 -2 0 -4 -15 -3 -15 1 -30 7 -32 13 -3 8 -33 11 -95 10 -75 -2 -89
0 -79 11 8 11 7 12 -6 7 -9 -3 -16 -9 -16 -13 0 -3 -18 -6 -40 -6 -32 0 -39 3
-35 15 4 11 2 10 -8 -2 -11 -14 -16 -15 -27 -5 -7 7 -10 7 -7 2 3 -7 -5 -11
-19 -11 -18 0 -23 4 -19 16 4 13 4 13 -8 0 -18 -22 -41 -25 -33 -4 5 14 4 15
-8 5 -8 -7 -27 -14 -42 -17 -24 -4 -26 -3 -14 11 11 13 10 15 -4 9 -9 -3 -16
-9 -16 -13 0 -3 -33 -6 -74 -6 -60 0 -72 2 -64 13 8 9 7 11 -6 6 -9 -3 -16 -9
-16 -13 0 -3 -25 -6 -55 -7 -30 -1 -52 3 -49 7 3 5 0 9 -5 9 -6 0 -11 -3 -11
-7 0 -5 -25 -8 -55 -9 -46 -1 -53 1 -44 13 9 11 8 12 -5 7 -9 -3 -16 -9 -16
-13 0 -4 -26 -6 -57 -6 -49 0 -58 -3 -57 -17 1 -10 -4 -18 -11 -18 -7 0 -12
11 -12 25 0 13 4 23 10 22 6 -1 13 6 15 16 2 9 -1 17 -7 17 -6 0 -8 -7 -4 -15
3 -9 2 -15 -3 -14 -27 5 -36 -1 -24 -16 7 -8 8 -15 4 -15 -5 0 -9 -29 -9 -64
0 -38 4 -62 9 -59 5 4 7 -1 3 -10 -3 -9 -3 -19 2 -21 4 -3 7 24 6 59 -1 36 2
65 6 65 4 0 7 -41 6 -91 0 -50 -3 -85 -6 -78 -4 8 -11 15 -18 16 -12 3 -11
-29 3 -61 6 -15 4 -17 -7 -11 -12 7 -12 6 1 -9 13 -17 14 -17 21 1 7 16 8 16
8 -4 1 -13 -7 -24 -17 -27 -21 -7 -25 -34 -9 -54 9 -11 12 -11 18 5 7 16 8 16
8 -4 1 -13 -7 -24 -17 -27 -21 -7 -25 -34 -9 -54 9 -11 12 -11 18 5 7 16 8 16
8 -4 1 -13 -7 -24 -17 -27 -21 -7 -25 -34 -9 -54 9 -11 12 -11 18 5 7 16 8 16
8 -4 1 -13 -7 -24 -17 -27 -21 -7 -25 -34 -9 -54 9 -11 12 -11 18 5 7 16 8 16
8 -4 1 -13 -7 -24 -17 -27 -21 -7 -25 -34 -9 -54 9 -11 12 -11 18 5 7 16 8 16
8 -4 1 -13 -7 -24 -17 -27 -13 -5 -18 -16 -18 -41 1 -19 5 -35 11 -35 5 0 4
-4 -3 -9 -10 -6 -9 -11 4 -22 16 -12 17 -12 11 4 -3 9 -3 17 2 17 15 0 9 -104
-7 -128 -8 -12 -16 -34 -18 -47 -2 -22 1 -24 22 -21 17 3 22 1 17 -7 -4 -7 -6
-24 -4 -39 1 -16 -2 -28 -6 -28 -5 0 -9 16 -8 35 2 29 0 33 -12 24 -10 -9 -10
-15 -2 -25 6 -7 7 -19 3 -26 -13 -21 -13 -38 -1 -38 7 0 5 -5 -3 -10 -10 -6
-11 -10 -2 -10 6 0 12 -5 12 -11 0 -5 -5 -7 -12 -3 -7 4 -8 3 -4 -4 4 -6 13
-9 21 -5 14 5 21 -13 16 -40 -1 -5 4 -5 11 -1 19 12 461 11 477 -1 11 -7 13
-7 8 2 -8 13 23 11 45 -3 6 -4 9 -3 6 2 -7 11 382 11 400 0 7 -4 12 -2 12 5 0
9 3 9 14 0 19 -16 25 -3 21 42 -2 20 0 37 5 37 5 0 7 6 5 13 -11 31 -13 67 -3
67 6 0 5 7 -3 17 -10 11 -10 14 -1 9 6 -4 12 -3 12 3 0 5 -5 13 -11 16 -6 5
-3 13 10 22 12 8 21 19 21 25 0 6 -10 3 -22 -8 l-23 -19 20 24 c15 19 16 23 4
19 -9 -4 -16 -1 -16 8 0 7 4 11 9 8 12 -8 10 10 -4 24 -9 9 -9 12 0 12 7 0 12
5 12 11 0 5 -4 8 -8 5 -4 -2 -8 4 -8 14 0 10 4 16 8 14 10 -6 11 10 1 20 -13
12 -10 64 3 59 18 -7 28 17 14 30 -10 10 -12 8 -6 -7 6 -16 4 -17 -10 -5 -10
8 -12 15 -5 17 6 2 11 8 11 13 0 6 -4 8 -8 5 -4 -2 -8 4 -8 14 0 10 4 16 8 14
10 -6 11 10 1 20 -13 12 -10 64 3 59 18 -7 28 17 14 30 -10 10 -12 8 -6 -7 6
-16 4 -17 -10 -5 -10 8 -12 15 -5 17 6 2 11 8 11 13 0 6 -4 8 -8 5 -4 -2 -8 4
-8 14 0 10 4 16 8 14 10 -6 11 10 1 20 -13 12 -10 64 3 59 18 -7 28 17 14 30
-10 10 -12 8 -6 -7 6 -16 4 -17 -10 -5 -10 8 -12 15 -5 17 6 2 11 8 11 13 0 6
-4 8 -8 5 -4 -2 -8 4 -8 14 0 10 4 16 8 14 4 -3 8 -1 8 5 0 5 -5 13 -10 16 -6
4 -7 12 -3 18 9 15 13 58 5 53 -4 -2 -7 29 -7 70 0 41 3 74 7 74 4 0 3 12 -2
26 -13 32 -13 31 6 38 14 5 15 4 4 -9 -8 -10 -9 -15 -1 -15 6 0 10 -3 10 -7
-4 -24 3 -42 14 -39 6 1 9 1 6 -1 -4 -2 -4 -22 -2 -45 4 -33 2 -40 -9 -35 -11
4 -15 -3 -15 -23 0 -20 4 -27 14 -23 10 4 13 -3 11 -24 -1 -16 2 -34 6 -41 5
-8 3 -11 -5 -10 -7 2 -14 -6 -16 -17 -3 -16 -2 -17 6 -5 9 13 11 12 11 -4 0
-13 -5 -16 -16 -12 -12 5 -15 2 -10 -10 3 -8 6 -19 6 -22 0 -4 4 -1 9 6 5 8 8
-9 9 -42 0 -31 -4 -56 -9 -56 -5 0 -9 -8 -9 -17 0 -15 2 -16 10 -3 8 13 10 12
10 -4 0 -13 -5 -16 -16 -12 -12 5 -15 2 -10 -10 3 -8 6 -19 6 -22 0 -4 4 -1 9
6 5 8 8 -9 9 -42 0 -31 -4 -56 -9 -56 -5 0 -9 -8 -9 -17 0 -15 2 -16 10 -3 8
13 10 12 10 -4 0 -13 -5 -16 -16 -12 -12 5 -15 2 -10 -10 3 -8 6 -19 6 -22 0
-4 4 -1 9 6 5 8 8 -9 9 -42 0 -31 -4 -56 -9 -56 -5 0 -9 -8 -9 -17 0 -15 2
-16 10 -3 8 13 10 12 10 -4 0 -11 -5 -16 -13 -13 -9 3 -14 -4 -14 -23 0 -20 4
-27 14 -23 10 4 13 -3 11 -24 -1 -16 2 -35 7 -42 5 -9 4 -12 -3 -7 -6 3 -13 2
-17 -4 -3 -5 -1 -10 6 -10 10 0 10 -3 1 -12 -17 -17 -15 -33 3 -18 8 7 15 9
15 5 0 -4 -8 -14 -17 -22 -17 -14 -17 -14 2 -9 19 6 19 5 2 -8 -17 -13 -17
-15 -1 -31 16 -16 16 -16 -1 -13 -10 2 -20 -3 -22 -10 -3 -8 2 -10 14 -6 17 5
17 5 0 -6 -9 -6 -14 -16 -11 -22 4 -7 2 -8 -4 -4 -11 7 -9 -25 3 -45 10 -14
-24 -49 -41 -42 -8 3 -14 1 -14 -4 0 -5 11 -9 24 -9 14 0 22 4 20 8 -3 4 -1 8
5 8 5 0 12 -6 15 -12 2 -7 4 -4 3 7 -1 11 2 21 7 23 5 1 10 -45 10 -105 l1
-108 194 -5 c106 -3 196 -3 200 0 4 3 6 25 6 50 -1 25 2 52 6 61 5 9 3 21 -3
27 -8 8 -8 15 2 27 10 12 10 15 -1 15 -8 0 -6 5 6 13 12 10 14 16 7 21 -7 4
-12 2 -12 -5 0 -7 -3 -10 -6 -7 -7 8 18 48 30 48 4 0 3 -6 -3 -14 -9 -10 -9
-16 -1 -21 8 -5 8 -11 -1 -21 -9 -11 -8 -14 2 -14 9 0 10 -3 4 -8 -14 -10 -15
-42 -1 -42 6 0 4 -5 -4 -10 -13 -9 -13 -11 0 -20 9 -6 10 -10 3 -10 -8 0 -9
-9 -3 -29 5 -19 4 -33 -3 -40 -6 -6 -7 -11 -2 -11 12 0 13 -170 1 -189 -6 -9
-5 -12 2 -7 7 4 10 -4 10 -21 -1 -52 0 -53 48 -53 33 0 43 -3 38 -12 -6 -10
-5 -10 7 -1 11 9 59 13 153 12 76 0 141 2 144 5 3 3 5 29 6 58 1 29 5 59 10
67 6 10 5 12 -2 7 -7 -4 -12 -1 -12 9 0 9 5 13 11 9 8 -4 8 -1 2 12 -13 25
-11 114 2 115 30 2 41 39 12 39 -7 0 -6 -4 3 -10 8 -5 13 -10 10 -11 -3 0 -13
-2 -22 -4 -21 -4 -24 15 -5 34 6 8 7 11 1 8 -12 -7 -13 141 -1 160 4 6 3 14
-2 17 -10 7 -9 25 2 43 4 6 3 14 -1 17 -11 6 -9 36 3 55 5 9 4 12 -2 8 -11 -7
-11 82 0 100 4 6 3 14 -2 17 -11 7 -9 25 3 45 6 9 5 12 -1 8 -11 -7 -11 32 0
49 3 6 3 14 -1 18 -11 11 -9 305 2 299 5 -4 6 0 0 8 -12 19 -12 319 0 312 5
-4 6 -1 0 8 -4 8 -9 24 -10 37 -1 17 3 22 15 17 14 -4 14 -4 1 7 -22 18 -22
121 0 113 13 -4 13 -4 0 7 -15 13 -20 74 -8 94 4 6 4 14 1 18 -14 13 -8 91 7
104 13 10 12 11 -4 5 -14 -4 -17 -2 -14 8 3 8 11 13 17 11 7 -1 10 2 6 8 -3 6
-10 8 -14 6 -4 -3 -7 41 -7 97 l1 102 -145 5 c-80 3 -170 3 -200 0z m-60 -335
c-8 -10 -8 -15 0 -20 8 -5 8 -11 -1 -21 -9 -11 -8 -14 2 -14 11 0 11 -2 -1
-10 -13 -9 -13 -11 0 -20 11 -7 11 -10 2 -10 -10 0 -10 -5 -2 -22 11 -22 10
-22 -4 -4 -11 13 -16 15 -16 6 0 -7 -3 -10 -6 -7 -4 4 -1 13 6 22 7 8 8 15 3
15 -16 0 -11 34 6 47 14 11 14 12 -3 13 -14 0 -16 3 -7 13 8 10 7 17 -1 25 -8
8 -5 9 11 5 16 -4 19 -9 11 -18z m0 -155 c6 -11 9 -20 8 -20 -2 0 -11 9 -21
20 -9 11 -13 20 -7 20 5 0 14 -9 20 -20z m-3 -37 c2 -6 -4 -13 -13 -17 -14 -5
-15 -4 -5 8 8 10 9 16 1 19 -6 3 -5 4 2 3 6 -1 13 -7 15 -13z m-422 -3 c3 -5
-1 -10 -9 -10 -9 0 -16 5 -16 10 0 6 4 10 9 10 6 0 13 -4 16 -10z m-5 -30 c0
-5 -2 -10 -4 -10 -3 0 -8 5 -11 10 -3 6 -1 10 4 10 6 0 11 -4 11 -10z m434
-26 c-1 -14 -6 -29 -10 -32 -4 -4 -5 0 -2 9 4 9 2 22 -2 29 -10 16 -3 33 9 25
5 -2 7 -16 5 -31z m-4 -59 c-10 -12 -10 -15 1 -16 10 0 11 -2 1 -6 -6 -2 -10
-9 -7 -14 4 -5 -2 -6 -11 -2 -12 4 -14 8 -6 11 10 3 10 7 0 20 -10 12 -10 14
0 8 6 -4 12 -2 12 3 0 6 5 11 11 11 8 0 8 -5 -1 -15z m-1470 -91 c0 -3 -7 -1
-15 6 -8 7 -15 17 -15 22 0 5 7 3 15 -6 8 -8 15 -18 15 -22z m1472 29 c-6 -2
-10 -9 -7 -14 4 -5 -1 -6 -10 -2 -13 5 -14 7 -3 14 7 5 18 8 23 8 6 0 4 -3 -3
-6z m2 -39 c-7 -3 -11 -13 -9 -22 1 -9 0 -11 -2 -4 -3 6 -10 12 -16 12 -7 0
-6 4 3 10 8 5 20 9 25 9 6 0 5 -3 -1 -5z m-1474 -64 c0 -5 -2 -10 -4 -10 -3 0
-8 5 -11 10 -3 6 -1 10 4 10 6 0 11 -4 11 -10z m1470 0 c-8 -5 -19 -10 -25
-10 -5 0 -3 5 5 10 8 5 20 10 25 10 6 0 3 -5 -5 -10z m3 -27 c-9 -3 -10 -10
-3 -23 7 -13 7 -21 -2 -26 -6 -4 -8 -3 -4 4 3 6 -1 17 -9 25 -15 15 -7 25 20
25 6 0 4 -2 -2 -5z m-1473 -53 c0 -5 -2 -10 -4 -10 -3 0 -8 5 -11 10 -3 6 -1
10 4 10 6 0 11 -4 11 -10z m1474 -16 c-7 -3 -11 -13 -9 -22 1 -9 0 -11 -2 -4
-3 6 -9 12 -14 12 -6 0 -7 5 -4 10 3 6 14 10 23 9 9 0 12 -3 6 -5z m-1474 -64
c0 -5 -2 -10 -4 -10 -3 0 -8 5 -11 10 -3 6 -1 10 4 10 6 0 11 -4 11 -10z
m1470 0 c-8 -5 -19 -10 -25 -10 -5 0 -3 5 5 10 8 5 20 10 25 10 6 0 3 -5 -5
-10z m3 -27 c-9 -3 -10 -10 -3 -23 7 -13 7 -21 -2 -26 -6 -4 -8 -3 -4 4 3 6
-1 17 -9 25 -15 15 -7 25 20 25 6 0 4 -2 -2 -5z m-1473 -53 c0 -5 -2 -10 -4
-10 -3 0 -8 5 -11 10 -3 6 -1 10 4 10 6 0 11 -4 11 -10z m1472 -17 c-6 -2 -10
-9 -7 -14 4 -5 -1 -6 -9 -3 -20 8 -11 24 12 23 11 0 12 -2 4 -6z m0 -40 c-6
-2 -10 -9 -7 -14 4 -5 -1 -6 -10 -2 -13 5 -14 7 -3 14 7 5 18 8 23 8 6 0 4 -3
-3 -6z m-1472 -23 c0 -5 -2 -10 -4 -10 -3 0 -8 5 -11 10 -3 6 -1 10 4 10 6 0
11 -4 11 -10z m1473 -16 c-7 -3 -10 -11 -7 -18 3 -8 -2 -16 -12 -20 -14 -5
-15 -4 -4 9 10 12 10 15 -1 15 -11 0 -11 2 1 10 8 5 20 9 25 9 6 0 5 -3 -2 -5z
m0 -69 c-7 -21 -12 -19 -10 4 0 11 5 18 9 15 4 -3 5 -11 1 -19z m-1473 5 c0
-5 -2 -10 -4 -10 -3 0 -8 5 -11 10 -3 6 -1 10 4 10 6 0 11 -4 11 -10z m0 -40
c0 -11 -4 -20 -9 -20 -5 0 -7 9 -4 20 3 11 7 20 9 20 2 0 4 -9 4 -20z m1480 6
c0 -3 -4 -8 -10 -11 -5 -3 -10 -1 -10 4 0 6 5 11 10 11 6 0 10 -2 10 -4z m-10
-41 c-10 -12 -10 -15 1 -16 10 0 11 -2 1 -6 -6 -2 -10 -9 -7 -14 4 -5 -2 -6
-11 -2 -12 4 -14 8 -6 11 10 3 10 7 0 20 -10 12 -10 14 0 8 6 -4 12 -2 12 3 0
6 5 11 11 11 8 0 8 -5 -1 -15z m2 -62 c-6 -2 -10 -9 -7 -14 4 -5 -1 -6 -10 -2
-13 5 -14 7 -3 14 7 5 18 8 23 8 6 0 4 -3 -3 -6z m2 -39 c-7 -3 -11 -13 -9
-22 1 -9 0 -11 -2 -4 -3 6 -10 12 -16 12 -7 0 -6 4 3 10 8 5 20 9 25 9 6 0 5
-3 -1 -5z m-1469 -53 c3 -5 0 -13 -6 -17 -8 -4 -9 -3 -5 4 4 7 2 12 -3 12 -6
0 -11 -5 -11 -12 0 -6 -3 -9 -6 -5 -7 7 4 27 16 27 5 0 11 -4 15 -9z m1465
-11 c-8 -5 -19 -10 -25 -10 -5 0 -3 5 5 10 8 5 20 10 25 10 6 0 3 -5 -5 -10z
m3 -27 c-9 -3 -10 -10 -3 -23 7 -13 7 -21 -2 -26 -6 -4 -8 -3 -4 4 3 6 -1 17
-9 25 -15 15 -7 25 20 25 6 0 4 -2 -2 -5z m0 -69 c-8 -4 -9 -13 -3 -28 4 -12
5 -28 0 -35 -5 -8 -7 -3 -7 15 0 15 -6 30 -12 32 -16 5 -3 22 17 21 10 0 12
-3 5 -5z m-1463 -29 c0 -12 -29 -3 -34 10 -4 13 -2 14 14 5 11 -6 20 -13 20
-15z m1032 -35 c3 -19 0 -30 -8 -30 -15 0 -26 28 -13 35 5 4 7 11 4 16 -4 5
-2 9 3 9 5 0 12 -13 14 -30z m-1042 10 c0 -5 -2 -10 -4 -10 -3 0 -8 5 -11 10
-3 6 -1 10 4 10 6 0 11 -4 11 -10z"/>
<path d="M4175 3421 c-3 -5 -2 -12 3 -15 5 -3 9 1 9 9 0 17 -3 19 -12 6z"/>
<path d="M5650 3420 c0 -5 5 -10 11 -10 5 0 7 5 4 10 -3 6 -8 10 -11 10 -2 0
-4 -4 -4 -10z"/>
<path d="M5596 3407 c3 -10 9 -15 12 -12 3 3 0 11 -7 18 -10 9 -11 8 -5 -6z"/>
<path d="M395 3380 c3 -5 8 -10 11 -10 2 0 4 5 4 10 0 6 -5 10 -11 10 -5 0 -7
-4 -4 -10z"/>
<path d="M5635 3361 c-3 -5 -2 -12 3 -15 5 -3 9 1 9 9 0 17 -3 19 -12 6z"/>
<path d="M5535 3351 c-3 -5 -2 -12 3 -15 5 -3 9 1 9 9 0 17 -3 19 -12 6z"/>
<path d="M390 3346 c0 -2 7 -7 16 -10 8 -3 12 -2 9 4 -6 10 -25 14 -25 6z"/>
<path d="M6126 3342 c-3 -5 1 -9 9 -9 8 0 12 4 9 9 -3 4 -7 8 -9 8 -2 0 -6 -4
-9 -8z"/>
<path d="M5639 3313 c-13 -17 -13 -17 6 -3 11 8 22 16 24 17 2 2 0 3 -6 3 -6
0 -17 -8 -24 -17z"/>
<path d="M5659 3308 c-6 -22 -5 -38 3 -38 6 0 8 6 5 14 -3 8 -1 17 6 20 9 3 9
5 0 5 -7 1 -13 0 -14 -1z"/>
<path d="M6115 3290 c10 -11 20 -20 23 -20 3 0 -3 9 -13 20 -10 11 -20 20 -23
20 -3 0 3 -9 13 -20z"/>
<path d="M396 3287 c3 -10 9 -15 12 -12 3 3 0 11 -7 18 -10 9 -11 8 -5 -6z"/>
<path d="M4196 3287 c3 -10 9 -15 12 -12 3 3 0 11 -7 18 -10 9 -11 8 -5 -6z"/>
<path d="M5553 3285 c0 -8 4 -12 9 -9 5 3 6 10 3 15 -9 13 -12 11 -12 -6z"/>
<path d="M5612 3280 c0 -14 2 -19 5 -12 2 6 2 18 0 25 -3 6 -5 1 -5 -13z"/>
<path d="M5390 3266 c0 -2 7 -7 16 -10 8 -3 12 -2 9 4 -6 10 -25 14 -25 6z"/>
<path d="M5540 3256 c0 -2 7 -7 16 -10 8 -3 12 -2 9 4 -6 10 -25 14 -25 6z"/>
<path d="M5586 3252 c-3 -5 1 -9 9 -9 8 0 12 4 9 9 -3 4 -7 8 -9 8 -2 0 -6 -4
-9 -8z"/>
<path d="M4253 3171 c0 -11 5 -18 9 -15 4 3 5 11 1 19 -7 21 -12 19 -10 -4z"/>
<path d="M5210 3180 c0 -5 5 -10 11 -10 5 0 7 5 4 10 -3 6 -8 10 -11 10 -2 0
-4 -4 -4 -10z"/>
<path d="M396 3167 c3 -10 9 -15 12 -12 3 3 0 11 -7 18 -10 9 -11 8 -5 -6z"/>
<path d="M4190 3141 c0 -6 4 -12 8 -15 5 -3 9 1 9 9 0 8 -4 15 -9 15 -4 0 -8
-4 -8 -9z"/>
<path d="M6110 3141 c0 -6 4 -12 8 -15 5 -3 9 1 9 9 0 8 -4 15 -9 15 -4 0 -8
-4 -8 -9z"/>
<path d="M5167 3119 c7 -7 15 -10 18 -7 3 3 -2 9 -12 12 -14 6 -15 5 -6 -5z"/>
<path d="M4180 3095 c14 -17 36 -20 44 -6 4 5 -3 7 -14 4 -11 -3 -20 0 -20 6
0 6 -5 11 -11 11 -8 0 -8 -5 1 -15z"/>
<path d="M5202 3098 c-7 -7 -12 -15 -12 -19 0 -9 27 -5 37 6 5 4 2 5 -6 0 -11
-6 -13 -4 -8 8 8 20 5 21 -11 5z"/>
<path d="M4253 3087 c0 -8 6 -14 14 -14 9 0 10 4 2 14 -6 7 -12 13 -14 13 -1
0 -2 -6 -2 -13z"/>
<path d="M4590 3081 c0 -6 4 -13 10 -16 6 -3 7 1 4 9 -7 18 -14 21 -14 7z"/>
<path d="M4314 3044 c0 -20 11 -25 11 -6 0 4 3 12 7 18 4 6 1 11 -5 11 -7 0
-13 -11 -13 -23z"/>
<path d="M4415 3060 c-3 -5 -1 -10 4 -10 6 0 11 5 11 10 0 6 -2 10 -4 10 -3 0
-8 -4 -11 -10z"/>
<path d="M5075 3060 c-3 -5 -1 -10 4 -10 6 0 11 5 11 10 0 6 -2 10 -4 10 -3 0
-8 -4 -11 -10z"/>
<path d="M6100 3066 c0 -2 8 -10 18 -17 15 -13 16 -12 3 4 -13 16 -21 21 -21
13z"/>
<path d="M395 3050 c-4 -6 -12 -7 -18 -4 -7 4 -8 3 -4 -1 13 -15 34 -14 34 1
0 17 -4 18 -12 4z"/>
<path d="M4251 3044 c0 -11 3 -14 6 -6 3 7 2 16 -1 19 -3 4 -6 -2 -5 -13z"/>
<path d="M4675 3049 c-4 -6 -5 -12 -2 -15 2 -3 7 2 10 11 7 17 1 20 -8 4z"/>
<path d="M4913 3045 c0 -8 4 -12 9 -9 5 3 6 10 3 15 -9 13 -12 11 -12 -6z"/>
<path d="M4271 3034 c0 -11 3 -14 6 -6 3 7 2 16 -1 19 -3 4 -6 -2 -5 -13z"/>
<path d="M4381 3036 c-9 -11 -9 -16 1 -22 7 -4 10 -4 6 1 -4 4 -3 14 3 22 6 7
9 13 6 13 -2 0 -10 -6 -16 -14z"/>
<path d="M4626 3038 c3 -5 10 -6 15 -3 13 9 11 12 -6 12 -8 0 -12 -4 -9 -9z"/>
<path d="M4950 3039 c0 -5 5 -7 10 -4 6 3 10 8 10 11 0 2 -4 4 -10 4 -5 0 -10
-5 -10 -11z"/>
<path d="M5114 3034 c1 -8 4 -15 7 -16 2 -2 3 -1 2 1 -2 2 2 9 7 16 7 8 5 12
-4 12 -8 0 -13 -6 -12 -13z"/>
<path d="M5156 3037 c3 -10 9 -15 12 -12 3 3 0 11 -7 18 -10 9 -11 8 -5 -6z"/>
<path d="M4495 3031 c-3 -5 -2 -12 3 -15 5 -3 9 1 9 9 0 17 -3 19 -12 6z"/>
<path d="M350 3001 c0 -6 4 -13 10 -16 6 -3 7 1 4 9 -7 18 -14 21 -14 7z"/>
<path d="M6126 2978 c3 -5 10 -6 15 -3 13 9 11 12 -6 12 -8 0 -12 -4 -9 -9z"/>
<path d="M393 2952 c2 -12 6 -24 10 -28 3 -4 4 4 2 16 -6 30 -16 40 -12 12z"/>
<path d="M6116 2929 c9 -10 21 -16 25 -13 13 8 11 14 -3 12 -7 -2 -12 2 -11 8
1 6 -5 11 -13 11 -12 0 -11 -4 2 -18z"/>
<path d="M5219 2899 c-7 -26 -2 -66 7 -66 13 0 13 51 1 63 -4 4 -7 5 -8 3z"/>
<path d="M385 2840 c-3 -6 1 -7 9 -4 18 7 21 14 7 14 -6 0 -13 -4 -16 -10z"/>
<path d="M375 2811 c-3 -5 -2 -12 3 -15 5 -3 9 1 9 9 0 17 -3 19 -12 6z"/>
<path d="M5228 2758 c0 -7 -2 -17 -2 -23 -1 -5 -5 -16 -10 -24 -6 -9 -5 -12 5
-9 7 2 14 19 15 36 2 31 -4 46 -8 20z"/>
<path d="M6096 2758 c3 -5 10 -6 15 -3 13 9 11 12 -6 12 -8 0 -12 -4 -9 -9z"/>
<path d="M395 2730 c-4 -6 -12 -7 -18 -4 -7 4 -8 3 -4 -1 13 -15 34 -14 34 1
0 17 -4 18 -12 4z"/>
<path d="M6126 2718 c3 -5 10 -6 15 -3 13 9 11 12 -6 12 -8 0 -12 -4 -9 -9z"/>
<path d="M350 2681 c0 -6 4 -13 10 -16 6 -3 7 1 4 9 -7 18 -14 21 -14 7z"/>
<path d="M6100 2682 c0 -5 7 -9 15 -9 8 0 15 4 15 9 0 4 -7 8 -15 8 -8 0 -15
-4 -15 -8z"/>
<path d="M393 2632 c2 -12 6 -24 10 -28 3 -4 4 4 2 16 -6 30 -16 40 -12 12z"/>
<path d="M6100 2598 c0 -4 7 -8 15 -8 8 0 15 4 15 8 0 5 -7 9 -15 9 -8 0 -15
-4 -15 -9z"/>
<path d="M6150 2599 c0 -5 5 -7 10 -4 6 3 10 8 10 11 0 2 -4 4 -10 4 -5 0 -10
-5 -10 -11z"/>
<path d="M5225 2582 c-14 -10 -15 -44 -1 -39 8 3 20 48 12 47 0 0 -5 -4 -11
-8z"/>
<path d="M380 2560 c-8 -5 -10 -10 -5 -10 6 0 17 5 25 10 8 5 11 10 5 10 -5 0
-17 -5 -25 -10z"/>
<path d="M390 2520 c0 -5 5 -10 11 -10 5 0 7 5 4 10 -3 6 -8 10 -11 10 -2 0
-4 -4 -4 -10z"/>
<path d="M6096 2438 c3 -5 10 -6 15 -3 13 9 11 12 -6 12 -8 0 -12 -4 -9 -9z"/>
<path d="M5225 2422 c-14 -10 -15 -44 -1 -39 8 3 20 48 12 47 0 0 -5 -4 -11
-8z"/>
<path d="M380 2400 c-9 -6 -10 -10 -3 -10 6 0 15 5 18 10 8 12 4 12 -15 0z"/>
<path d="M6126 2398 c3 -5 10 -6 15 -3 13 9 11 12 -6 12 -8 0 -12 -4 -9 -9z"/>
<path d="M390 2360 c0 -5 5 -10 11 -10 5 0 7 5 4 10 -3 6 -8 10 -11 10 -2 0
-4 -4 -4 -10z"/>
<path d="M6100 2362 c0 -5 7 -9 15 -9 8 0 15 4 15 9 0 4 -7 8 -15 8 -8 0 -15
-4 -15 -8z"/>
<path d="M6100 2278 c0 -4 7 -8 15 -8 8 0 15 4 15 8 0 5 -7 9 -15 9 -8 0 -15
-4 -15 -9z"/>
<path d="M6150 2279 c0 -5 5 -7 10 -4 6 3 10 8 10 11 0 2 -4 4 -10 4 -5 0 -10
-5 -10 -11z"/>
<path d="M5225 2262 c-14 -10 -15 -44 -1 -39 8 3 20 48 12 47 0 0 -5 -4 -11
-8z"/>
<path d="M6115 2220 c3 -13 -1 -31 -8 -39 -11 -14 -10 -14 5 -2 17 12 19 43 5
57 -3 4 -4 -4 -2 -16z"/>
<path d="M395 2200 c3 -5 8 -10 11 -10 2 0 4 5 4 10 0 6 -5 10 -11 10 -5 0 -7
-4 -4 -10z"/>
<path d="M4184 2161 c4 -5 1 -12 -4 -14 -6 -3 -5 -4 2 -3 15 3 23 26 8 26 -6
0 -9 -4 -6 -9z"/>
<path d="M6116 2162 c-3 -5 1 -9 9 -9 8 0 12 4 9 9 -3 4 -7 8 -9 8 -2 0 -6 -4
-9 -8z"/>
<path d="M393 2125 c0 -8 4 -15 9 -15 4 0 8 4 8 9 0 6 -4 12 -8 15 -5 3 -9 -1
-9 -9z"/>
<path d="M5231 2114 c0 -11 3 -14 6 -6 3 7 2 16 -1 19 -3 4 -6 -2 -5 -13z"/>
<path d="M6109 2117 c6 -8 7 -18 3 -22 -4 -5 -1 -5 6 -1 10 6 10 11 1 22 -6 8
-14 14 -16 14 -3 0 0 -6 6 -13z"/>
<path d="M6119 2073 c-13 -16 -12 -17 4 -4 16 13 21 21 13 21 -2 0 -10 -8 -17
-17z"/>
<path d="M385 2040 c-3 -6 1 -7 9 -4 18 7 21 14 7 14 -6 0 -13 -4 -16 -10z"/>
<path d="M6113 1975 c0 -8 4 -12 9 -9 5 3 6 10 3 15 -9 13 -12 11 -12 -6z"/>
<path d="M387 1959 c7 -7 15 -10 18 -7 3 3 -2 9 -12 12 -14 6 -15 5 -6 -5z"/>
<path d="M5215 1960 c3 -5 8 -10 11 -10 2 0 4 5 4 10 0 6 -5 10 -11 10 -5 0
-7 -4 -4 -10z"/>
<path d="M350 1881 c0 -6 4 -13 10 -16 6 -3 7 1 4 9 -7 18 -14 21 -14 7z"/>
<path d="M6106 1880 c5 -8 9 -18 9 -22 0 -3 3 -9 7 -13 3 -4 5 0 4 9 -1 9 -8
22 -16 29 -10 10 -11 9 -4 -3z"/>
<path d="M393 1832 c2 -12 6 -24 10 -28 3 -4 4 4 2 16 -6 30 -16 40 -12 12z"/>
<path d="M4186 1834 c-3 -9 -4 -20 0 -25 3 -5 -1 -9 -8 -9 -7 0 -4 -6 7 -12
11 -7 22 -11 24 -9 2 1 8 -3 13 -11 8 -10 9 -10 5 2 -2 8 -9 16 -15 16 -25 3
-26 6 -7 14 18 8 18 9 2 9 -14 1 -17 6 -12 21 8 24 0 27 -9 4z"/>
<path d="M5010 1820 c0 -5 5 -10 11 -10 5 0 7 5 4 10 -3 6 -8 10 -11 10 -2 0
-4 -4 -4 -10z"/>
<path d="M4233 1805 c0 -8 4 -12 8 -9 4 2 10 -2 12 -8 4 -8 6 -9 6 -2 1 6 -5
17 -12 23 -10 8 -14 7 -14 -4z"/>
<path d="M4318 1813 c7 -3 16 -2 19 1 4 3 -2 6 -13 5 -11 0 -14 -3 -6 -6z"/>
<path d="M4371 1807 c-8 -10 -7 -14 2 -14 8 0 14 6 14 14 0 7 -1 13 -2 13 -2
0 -8 -6 -14 -13z"/>
<path d="M4633 1805 c0 -8 4 -12 9 -9 5 3 6 10 3 15 -9 13 -12 11 -12 -6z"/>
<path d="M4853 1803 c0 -8 6 -9 19 -2 10 5 18 11 18 12 0 2 -8 3 -18 3 -10 0
-19 -6 -19 -13z"/>
<path d="M4931 1804 c0 -11 3 -14 6 -6 3 7 2 16 -1 19 -3 4 -6 -2 -5 -13z"/>
<path d="M5091 1807 c-8 -10 -7 -14 2 -14 8 0 14 6 14 14 0 7 -1 13 -2 13 -2
0 -8 -6 -14 -13z"/>
<path d="M5137 1809 c7 -7 15 -10 18 -7 3 3 -2 9 -12 12 -14 6 -15 5 -6 -5z"/>
<path d="M4500 1806 c0 -2 8 -10 18 -17 15 -13 16 -12 3 4 -13 16 -21 21 -21
13z"/>
<path d="M4690 1799 c0 -5 5 -7 10 -4 6 3 10 8 10 11 0 2 -4 4 -10 4 -5 0 -10
-5 -10 -11z"/>
<path d="M4433 1785 c0 -8 4 -12 9 -9 5 3 6 10 3 15 -9 13 -12 11 -12 -6z"/>
<path d="M4273 1776 c1 -6 -4 -10 -10 -8 -7 1 -13 -2 -13 -8 0 -16 15 -12 33
8 14 15 14 19 3 19 -8 0 -14 -5 -13 -11z"/>
<path d="M4347 1779 c7 -7 15 -10 18 -7 3 3 -2 9 -12 12 -14 6 -15 5 -6 -5z"/>
<path d="M4895 1780 c3 -5 8 -10 11 -10 2 0 4 5 4 10 0 6 -5 10 -11 10 -5 0
-7 -4 -4 -10z"/>
<path d="M5220 1771 c0 -6 4 -13 10 -16 6 -3 7 1 4 9 -7 18 -14 21 -14 7z"/>
<path d="M6110 1777 c0 -2 6 -10 14 -16 11 -9 16 -9 22 1 4 7 4 10 -1 6 -4 -4
-14 -3 -22 3 -7 6 -13 9 -13 6z"/>
<path d="M384 1758 c-4 -6 -3 -8 4 -4 5 3 13 0 15 -6 3 -8 6 -6 6 5 1 19 -14
23 -25 5z"/>
<path d="M4174 1751 c0 -11 4 -17 8 -15 4 3 8 12 8 20 0 8 -4 14 -8 14 -4 0
-8 -9 -8 -19z"/>
<path d="M5076 1738 c3 -4 11 -5 19 -1 21 7 19 12 -4 10 -11 0 -18 -5 -15 -9z"/>
<path d="M4193 1720 c-3 -11 -10 -17 -16 -13 -6 3 -7 1 -3 -5 10 -17 32 -4 32
18 0 26 -6 26 -13 0z"/>
<path d="M5215 1729 c-4 -6 -14 -8 -24 -4 -13 5 -14 4 -3 -6 10 -11 15 -10 29
4 10 9 14 17 11 17 -4 0 -10 -5 -13 -11z"/>
<path d="M4226 1718 c3 -5 10 -6 15 -3 13 9 11 12 -6 12 -8 0 -12 -4 -9 -9z"/>
<path d="M6130 1699 c0 -5 5 -7 10 -4 6 3 10 8 10 11 0 2 -4 4 -10 4 -5 0 -10
-5 -10 -11z"/>
<path d="M350 1682 c0 -5 7 -9 15 -9 8 0 12 4 9 9 -3 4 -9 8 -15 8 -5 0 -9 -4
-9 -8z"/>
<path d="M4200 1680 c-12 -7 -10 -9 7 -7 12 0 19 5 17 9 -6 10 -6 10 -24 -2z"/>
<path d="M4210 1639 c0 -5 5 -7 10 -4 6 3 10 8 10 11 0 2 -4 4 -10 4 -5 0 -10
-5 -10 -11z"/>
<path d="M5660 1639 c0 -5 5 -7 10 -4 6 3 10 8 10 11 0 2 -4 4 -10 4 -5 0 -10
-5 -10 -11z"/>
<path d="M375 1620 c3 -5 8 -10 11 -10 2 0 4 5 4 10 0 6 -5 10 -11 10 -5 0 -7
-4 -4 -10z"/>
<path d="M5656 1601 c-3 -5 1 -11 9 -14 9 -4 12 -1 8 9 -6 16 -10 17 -17 5z"/>
<path d="M5375 1591 c-3 -5 -2 -12 3 -15 5 -3 9 1 9 9 0 17 -3 19 -12 6z"/>
<path d="M5510 1590 c-9 -6 -10 -10 -3 -10 6 0 15 5 18 10 8 12 4 12 -15 0z"/>
<path d="M5630 1581 c21 -17 23 -22 10 -30 -8 -6 -11 -13 -6 -18 4 -4 12 0 17
10 6 9 16 15 22 11 7 -3 3 2 -8 11 -11 9 -29 21 -40 26 -14 7 -12 4 5 -10z"/>
<path d="M5470 1575 c5 -7 8 -14 5 -17 -3 -2 2 -5 10 -5 10 0 12 4 5 12 -5 7
-8 14 -5 17 3 2 -2 5 -10 5 -10 0 -12 -4 -5 -12z"/>
<path d="M6130 1579 c0 -5 5 -7 10 -4 6 3 10 8 10 11 0 2 -4 4 -10 4 -5 0 -10
-5 -10 -11z"/>
<path d="M5550 1569 c0 -5 5 -7 10 -4 6 3 10 8 10 11 0 2 -4 4 -10 4 -5 0 -10
-5 -10 -11z"/>
<path d="M5581 1558 c-9 -16 -9 -19 -1 -11 7 6 18 9 25 7 7 -3 16 -1 20 5 4 7
0 8 -11 4 -12 -4 -15 -3 -10 5 4 7 3 12 -1 12 -5 0 -14 -10 -22 -22z"/>
<path d="M5425 1560 c-3 -6 1 -7 9 -4 18 7 21 14 7 14 -6 0 -13 -4 -16 -10z"/>
<path d="M6096 1558 c3 -5 10 -6 15 -3 13 9 11 12 -6 12 -8 0 -12 -4 -9 -9z"/>
<path d="M6130 1540 c0 -5 5 -10 11 -10 5 0 7 5 4 10 -3 6 -8 10 -11 10 -2 0
-4 -4 -4 -10z"/>
<path d="M4176 1518 c3 -5 10 -6 15 -3 13 9 11 12 -6 12 -8 0 -12 -4 -9 -9z"/>
<path d="M376 1507 c3 -10 9 -15 12 -12 3 3 0 11 -7 18 -10 9 -11 8 -5 -6z"/>
<path d="M5652 1500 c2 -9 -3 -14 -12 -12 -8 2 -11 0 -7 -4 13 -14 35 -12 33
2 -1 7 -6 17 -10 21 -4 4 -6 1 -4 -7z"/>
<path d="M5616 1462 c-3 -5 1 -9 9 -9 8 0 12 4 9 9 -3 4 -7 8 -9 8 -2 0 -6 -4
-9 -8z"/>
<path d="M4159 1433 c-13 -16 -12 -17 4 -4 9 7 17 15 17 17 0 8 -8 3 -21 -13z"/>
<path d="M6130 1439 c0 -5 5 -7 10 -4 6 3 10 8 10 11 0 2 -4 4 -10 4 -5 0 -10
-5 -10 -11z"/>
<path d="M4130 1379 c0 -5 5 -7 10 -4 6 3 10 8 10 11 0 2 -4 4 -10 4 -5 0 -10
-5 -10 -11z"/>
<path d="M436 1367 c3 -10 9 -15 12 -12 3 3 0 11 -7 18 -10 9 -11 8 -5 -6z"/>
<path d="M476 1322 c-3 -5 1 -9 9 -9 8 0 12 4 9 9 -3 4 -7 8 -9 8 -2 0 -6 -4
-9 -8z"/>
<path d="M5820 1326 c0 -2 8 -10 18 -17 15 -13 16 -12 3 4 -13 16 -21 21 -21
13z"/>
<path d="M5895 1300 c-3 -5 -1 -10 4 -10 6 0 11 5 11 10 0 6 -2 10 -4 10 -3 0
-8 -4 -11 -10z"/>
<path d="M627 1239 c7 -7 15 -10 18 -7 3 3 -2 9 -12 12 -14 6 -15 5 -6 -5z"/>
<path d="M900 1241 c0 -5 9 -12 19 -16 12 -4 18 -12 14 -21 -3 -7 -3 -14 0
-14 3 0 7 6 10 14 3 9 -4 21 -19 30 -13 9 -24 12 -24 7z"/>
<path d="M950 1239 c0 -5 5 -7 10 -4 6 3 10 8 10 11 0 2 -4 4 -10 4 -5 0 -10
-5 -10 -11z"/>
<path d="M3580 1235 c14 -17 30 -20 30 -4 0 5 -4 7 -10 4 -5 -3 -10 -1 -10 4
0 6 -5 11 -11 11 -8 0 -8 -5 1 -15z"/>
<path d="M3716 1242 c-3 -5 1 -9 9 -9 8 0 15 4 15 9 0 4 -4 8 -9 8 -6 0 -12
-4 -15 -8z"/>
<path d="M3756 1233 c-6 -14 -5 -15 5 -6 7 7 10 15 7 18 -3 3 -9 -2 -12 -12z"/>
<path d="M753 1225 c0 -8 4 -12 9 -9 5 3 6 10 3 15 -9 13 -12 11 -12 -6z"/>
<path d="M3670 1232 c0 -6 9 -12 20 -15 11 -3 20 -3 20 -1 0 2 -9 8 -20 14
-11 6 -20 7 -20 2z"/>
<path d="M3815 1211 c-3 -5 -2 -12 3 -15 5 -3 9 1 9 9 0 17 -3 19 -12 6z"/>
<path d="M955 1200 c-3 -5 -1 -10 4 -10 6 0 11 5 11 10 0 6 -2 10 -4 10 -3 0
-8 -4 -11 -10z"/>
<path d="M3603 1195 c0 -7 6 -11 14 -8 7 3 13 6 13 8 0 2 -6 5 -13 8 -8 3 -14
-1 -14 -8z"/>
<path d="M3650 1200 c0 -5 5 -10 10 -10 6 0 10 5 10 10 0 6 -4 10 -10 10 -5 0
-10 -4 -10 -10z"/>
<path d="M3746 1202 c-3 -5 1 -9 9 -9 8 0 12 4 9 9 -3 4 -7 8 -9 8 -2 0 -6 -4
-9 -8z"/>
<path d="M796 1182 c-3 -5 1 -9 9 -9 8 0 12 4 9 9 -3 4 -7 8 -9 8 -2 0 -6 -4
-9 -8z"/>
<path d="M977 1183 c-8 -8 12 -33 26 -33 6 0 2 7 -9 16 -19 15 -18 15 4 11 12
-3 22 -1 22 4 0 10 -33 12 -43 2z"/>
<path d="M933 1166 c0 -8 5 -14 11 -13 6 1 10 -4 8 -11 -1 -8 2 -11 8 -7 8 5
6 13 -6 26 -21 23 -21 23 -21 5z"/>
<path d="M3630 1169 c0 -5 -6 -7 -12 -3 -7 4 -9 3 -5 -1 13 -15 34 -14 34 1 0
8 -4 14 -9 14 -4 0 -8 -5 -8 -11z"/>
<path d="M3666 1142 c-3 -5 1 -9 9 -9 8 0 12 4 9 9 -3 4 -7 8 -9 8 -2 0 -6 -4
-9 -8z"/>
<path d="M964 1118 l-19 -23 23 19 c21 18 27 26 19 26 -2 0 -12 -10 -23 -22z"/>
<path d="M3620 1133 c0 -6 4 -14 9 -18 6 -3 8 -14 6 -25 -2 -12 0 -18 5 -15 4
3 7 11 6 18 -3 18 -25 54 -26 40z"/>
<path d="M3710 1126 c0 -2 7 -7 16 -10 8 -3 12 -2 9 4 -6 10 -25 14 -25 6z"/>
<path d="M955 1080 c-3 -5 -1 -10 4 -10 6 0 11 5 11 10 0 6 -2 10 -4 10 -3 0
-8 -4 -11 -10z"/>
<path d="M3690 1086 c0 -2 7 -7 16 -10 8 -3 12 -2 9 4 -6 10 -25 14 -25 6z"/>
<path d="M3600 1071 c0 -6 4 -13 10 -16 6 -3 7 1 4 9 -7 18 -14 21 -14 7z"/>
<path d="M3655 1021 c-3 -5 -2 -12 3 -15 5 -3 9 1 9 9 0 17 -3 19 -12 6z"/>
<path d="M3622 1004 c10 -10 20 -16 22 -13 3 3 -5 11 -17 18 -21 13 -21 12 -5
-5z"/>
<path d="M999 953 c-13 -16 -12 -17 4 -4 9 7 17 15 17 17 0 8 -8 3 -21 -13z"/>
<path d="M3630 959 c0 -5 5 -7 10 -4 6 3 10 8 10 11 0 2 -4 4 -10 4 -5 0 -10
-5 -10 -11z"/>
<path d="M1001 916 c-9 -11 -9 -16 1 -22 7 -4 10 -4 6 1 -4 4 -3 14 3 22 6 7
9 13 6 13 -2 0 -10 -6 -16 -14z"/>
<path d="M1290 760 c0 -5 5 -10 11 -10 5 0 7 5 4 10 -3 6 -8 10 -11 10 -2 0
-4 -4 -4 -10z"/>
<path d="M1890 760 c0 -5 5 -10 11 -10 5 0 7 5 4 10 -3 6 -8 10 -11 10 -2 0
-4 -4 -4 -10z"/>
<path d="M2113 760 c-13 -5 -23 -11 -23 -14 0 -7 40 6 46 15 6 10 6 10 -23 -1z"/>
<path d="M2347 759 c7 -7 15 -10 18 -7 3 3 -2 9 -12 12 -14 6 -15 5 -6 -5z"/>
<path d="M2593 760 c-13 -5 -23 -11 -23 -14 0 -7 40 6 46 15 6 10 6 10 -23 -1z"/>
<path d="M2827 759 c7 -7 15 -10 18 -7 3 3 -2 9 -12 12 -14 6 -15 5 -6 -5z"/>
<path d="M1470 756 c0 -2 9 -6 20 -9 11 -3 18 -1 14 4 -5 9 -34 13 -34 5z"/>
<path d="M1951 747 c-8 -10 -7 -14 2 -14 8 0 14 6 14 14 0 7 -1 13 -2 13 -2 0
-8 -6 -14 -13z"/>
<path d="M2390 745 c-11 -13 -10 -14 4 -9 9 3 16 10 16 15 0 13 -6 11 -20 -6z"/>
<path d="M2431 747 c-8 -10 -7 -14 2 -14 8 0 14 6 14 14 0 7 -1 13 -2 13 -2 0
-8 -6 -14 -13z"/>
<path d="M2870 745 c-11 -13 -10 -14 4 -9 9 3 16 10 16 15 0 13 -6 11 -20 -6z"/>
<path d="M2911 747 c-8 -10 -7 -14 2 -14 8 0 14 6 14 14 0 7 -1 13 -2 13 -2 0
-8 -6 -14 -13z"/>
<path d="M3119 758 c-5 -18 -6 -38 -1 -34 7 8 12 36 6 36 -2 0 -4 -1 -5 -2z"/>
<path d="M1430 736 c7 -7 13 -7 20 0 6 6 3 10 -10 10 -13 0 -16 -4 -10 -10z"/>
<path d="M1700 740 c-9 -6 -10 -10 -3 -10 6 0 15 5 18 10 8 12 4 12 -15 0z"/>
<path d="M1860 740 c-9 -6 -10 -10 -3 -10 6 0 15 5 18 10 8 12 4 12 -15 0z"/>
<path d="M2147 739 c7 -7 15 -10 18 -7 3 3 -2 9 -12 12 -14 6 -15 5 -6 -5z"/>
<path d="M2627 739 c7 -7 15 -10 18 -7 3 3 -2 9 -12 12 -14 6 -15 5 -6 -5z"/>
<path d="M3070 736 c7 -7 13 -7 20 0 6 6 3 10 -10 10 -13 0 -16 -4 -10 -10z"/>
<path d="M3350 736 c7 -7 13 -7 20 0 6 6 3 10 -10 10 -13 0 -16 -4 -10 -10z"/>
<path d="M1295 731 c-3 -5 -2 -12 3 -15 5 -3 9 1 9 9 0 17 -3 19 -12 6z"/>
<path d="M1576 727 c3 -10 9 -15 12 -12 3 3 0 11 -7 18 -10 9 -11 8 -5 -6z"/>
<path d="M2010 736 c0 -2 8 -10 18 -17 15 -13 16 -12 3 4 -13 16 -21 21 -21
13z"/>
<path d="M2355 731 c-3 -5 -2 -12 3 -15 5 -3 9 1 9 9 0 17 -3 19 -12 6z"/>
<path d="M2490 736 c0 -2 8 -10 18 -17 15 -13 16 -12 3 4 -13 16 -21 21 -21
13z"/>
<path d="M2835 731 c-3 -5 -2 -12 3 -15 5 -3 9 1 9 9 0 17 -3 19 -12 6z"/>
<path d="M2970 736 c0 -2 8 -10 18 -17 15 -13 16 -12 3 4 -13 16 -21 21 -21
13z"/>
<path d="M3213 725 c0 -8 4 -12 9 -9 5 3 6 10 3 15 -9 13 -12 11 -12 -6z"/>
<path d="M2127 719 c7 -7 15 -10 18 -7 3 3 -2 9 -12 12 -14 6 -15 5 -6 -5z"/>
<path d="M2186 718 c3 -5 10 -6 15 -3 13 9 11 12 -6 12 -8 0 -12 -4 -9 -9z"/>
<path d="M2607 719 c7 -7 15 -10 18 -7 3 3 -2 9 -12 12 -14 6 -15 5 -6 -5z"/>
<path d="M2666 718 c3 -5 10 -6 15 -3 13 9 11 12 -6 12 -8 0 -12 -4 -9 -9z"/>
<path d="M1436 707 c3 -10 9 -15 12 -12 3 3 0 11 -7 18 -10 9 -11 8 -5 -6z"/>
<path d="M2213 703 c4 -3 1 -13 -6 -22 -11 -14 -10 -14 5 -2 16 12 16 31 1 31
-4 0 -3 -3 0 -7z"/>
<path d="M2275 700 c-3 -5 -1 -10 4 -10 6 0 11 5 11 10 0 6 -2 10 -4 10 -3 0
-8 -4 -11 -10z"/>
<path d="M2693 703 c4 -3 1 -13 -6 -22 -11 -14 -10 -14 5 -2 16 12 16 31 1 31
-4 0 -3 -3 0 -7z"/>
<path d="M2755 700 c-3 -5 -1 -10 4 -10 6 0 11 5 11 10 0 6 -2 10 -4 10 -3 0
-8 -4 -11 -10z"/>
<path d="M3070 699 c0 -5 5 -7 10 -4 6 3 10 8 10 11 0 2 -4 4 -10 4 -5 0 -10
-5 -10 -11z"/>
<path d="M3136 701 c-3 -5 2 -15 12 -22 15 -12 16 -12 5 2 -7 9 -10 19 -6 22
3 4 4 7 0 7 -3 0 -8 -4 -11 -9z"/>
<path d="M3250 706 c0 -2 7 -7 16 -10 8 -3 12 -2 9 4 -6 10 -25 14 -25 6z"/>
</g>
</svg>
